<svg width="34" height="35" viewBox="0 0 34 35" fill="none" xmlns="http://www.w3.org/2000/svg">
<mask id="mask0_3225_17492" style="mask-type:alpha" maskUnits="userSpaceOnUse" x="0" y="0" width="34" height="35">
<rect y="0.5" width="34" height="34" fill="#D9D9D9"/>
</mask>
<g mask="url(#mask0_3225_17492)">
<path d="M3.86004 30.25C3.60031 30.25 3.3642 30.1851 3.1517 30.0552C2.9392 29.9253 2.77393 29.7542 2.65587 29.5417C2.53782 29.3292 2.47288 29.099 2.46108 28.851C2.44927 28.6031 2.5142 28.3611 2.65587 28.125L15.76 5.45833C15.9017 5.22222 16.0847 5.04514 16.309 4.92708C16.5333 4.80903 16.7635 4.75 16.9996 4.75C17.2357 4.75 17.4659 4.80903 17.6902 4.92708C17.9146 5.04514 18.0975 5.22222 18.2392 5.45833L31.3434 28.125C31.485 28.3611 31.55 28.6031 31.5382 28.851C31.5264 29.099 31.4614 29.3292 31.3434 29.5417C31.2253 29.7542 31.06 29.9253 30.8475 30.0552C30.635 30.1851 30.3989 30.25 30.1392 30.25H3.86004ZM6.30379 27.4167H27.6955L16.9996 9L6.30379 27.4167ZM16.9996 26C17.401 26 17.7375 25.8642 18.009 25.5927C18.2805 25.3212 18.4163 24.9847 18.4163 24.5833C18.4163 24.1819 18.2805 23.8455 18.009 23.574C17.7375 23.3024 17.401 23.1667 16.9996 23.1667C16.5982 23.1667 16.2618 23.3024 15.9902 23.574C15.7187 23.8455 15.583 24.1819 15.583 24.5833C15.583 24.9847 15.7187 25.3212 15.9902 25.5927C16.2618 25.8642 16.5982 26 16.9996 26ZM16.9996 21.75C17.401 21.75 17.7375 21.6142 18.009 21.3427C18.2805 21.0712 18.4163 20.7347 18.4163 20.3333V16.0833C18.4163 15.6819 18.2805 15.3455 18.009 15.074C17.7375 14.8024 17.401 14.6667 16.9996 14.6667C16.5982 14.6667 16.2618 14.8024 15.9902 15.074C15.7187 15.3455 15.583 15.6819 15.583 16.0833V20.3333C15.583 20.7347 15.7187 21.0712 15.9902 21.3427C16.2618 21.6142 16.5982 21.75 16.9996 21.75Z" fill="#FF5500"/>
</g>
</svg>
