<svg width="75" height="27" viewBox="0 0 75 27" fill="none" xmlns="http://www.w3.org/2000/svg">
<g clip-path="url(#clip0_3491_15073)">
<path d="M71.25 1.08984H3.75C1.85152 1.08984 0.3125 2.65139 0.3125 4.57765V22.3337C0.3125 24.26 1.85152 25.8216 3.75 25.8216H71.25C73.1485 25.8216 74.6875 24.26 74.6875 22.3337V4.57765C74.6875 2.65139 73.1485 1.08984 71.25 1.08984Z" fill="black"/>
<path d="M71.25 1.08984H3.75C1.85152 1.08984 0.3125 2.65139 0.3125 4.57765V22.3337C0.3125 24.26 1.85152 25.8216 3.75 25.8216H71.25C73.1485 25.8216 74.6875 24.26 74.6875 22.3337V4.57765C74.6875 2.65139 73.1485 1.08984 71.25 1.08984Z" stroke="#A6A6A6"/>
<path d="M15.4403 13.9401C15.4479 13.3567 15.6043 12.7847 15.8951 12.2774C16.1857 11.77 16.6013 11.3437 17.103 11.0382C16.7842 10.5872 16.3638 10.2162 15.875 9.95441C15.3861 9.69264 14.8424 9.54735 14.287 9.5301C13.1022 9.40695 11.9536 10.2324 11.3499 10.2324C10.7344 10.2324 9.80487 9.54234 8.80387 9.56276C8.15637 9.5835 7.52537 9.77 6.97231 10.1041C6.41925 10.4382 5.96297 10.9085 5.64796 11.4693C4.28345 13.8095 5.30125 17.2489 6.60837 19.1407C7.26231 20.067 8.02662 21.1016 9.02675 21.065C10.0054 21.0248 10.3709 20.4467 11.5522 20.4467C12.7226 20.4467 13.0655 21.065 14.0859 21.0416C15.136 21.0248 15.7976 20.1112 16.4287 19.1761C16.8986 18.5161 17.2601 17.7866 17.5 17.0147C16.8899 16.7591 16.3692 16.3313 16.003 15.7845C15.6367 15.2377 15.441 14.5963 15.4403 13.9401Z" fill="white"/>
<path d="M13.5126 8.28727C14.0851 7.60639 14.3672 6.73124 14.2989 5.84766C13.4241 5.93867 12.6161 6.35281 12.0358 7.00757C11.7521 7.32743 11.5348 7.69955 11.3963 8.10267C11.2578 8.5058 11.2009 8.93201 11.2288 9.35689C11.6664 9.36133 12.0993 9.26741 12.4948 9.08211C12.8904 8.89688 13.2384 8.62508 13.5126 8.28727Z" fill="white"/>
<path d="M22.9944 6.16549H24.288C25.4059 6.16549 25.9497 6.8399 25.9497 8.06326C25.9497 9.28665 25.4004 9.96944 24.288 9.96944H22.9944V6.16549ZM23.6179 6.69777V9.4372H24.2194C24.9609 9.4372 25.3098 8.9829 25.3098 8.07163C25.3098 7.15478 24.9582 6.69777 24.2194 6.69777H23.6179ZM27.9218 6.97366C28.6798 6.97366 29.2099 7.47249 29.2099 8.30018V8.68193C29.2099 9.53752 28.6798 10.0196 27.9218 10.0196C27.1527 10.0196 26.6281 9.54304 26.6281 8.68472V8.30297C26.6281 7.4976 27.1609 6.97366 27.9218 6.97366ZM27.9245 7.47249C27.4906 7.47249 27.2434 7.84036 27.2434 8.3336V8.66246C27.2434 9.1557 27.4741 9.52078 27.9245 9.52078C28.3694 9.52078 28.5974 9.15849 28.5974 8.66246V8.3336C28.5974 7.84036 28.3584 7.47249 27.9245 7.47249ZM33.6868 7.02383L32.9233 9.96944H32.3026L31.6956 7.79578H31.6791L31.0831 9.96944H30.4596L29.6631 7.02383H30.3195L30.7864 9.26998H30.8139L31.3989 7.02383H31.9729L32.5744 9.26998H32.6019L33.0771 7.02383H33.6868ZM34.2911 9.96944V7.02383H34.8898V7.55328H34.9201C34.9942 7.32201 35.2057 6.97923 35.7934 6.97923C36.3785 6.97923 36.7713 7.30805 36.7713 7.97968V9.96944H36.1615V8.16085C36.1615 7.71213 35.9308 7.50591 35.5874 7.50591C35.137 7.50591 34.9008 7.8571 34.9008 8.3336V9.96944H34.2911ZM37.6941 9.96944V5.96484H38.3038V9.96944H37.6941ZM40.3968 6.97366C41.1548 6.97366 41.6849 7.47249 41.6849 8.30018V8.68193C41.6849 9.53752 41.1548 10.0196 40.3968 10.0196C39.6277 10.0196 39.1031 9.54304 39.1031 8.68472V8.30297C39.1031 7.4976 39.636 6.97366 40.3968 6.97366ZM40.3995 7.47249C39.9655 7.47249 39.7183 7.84036 39.7183 8.3336V8.66246C39.7183 9.1557 39.9491 9.52078 40.3995 9.52078C40.8444 9.52078 41.0724 9.15849 41.0724 8.66246V8.3336C41.0724 7.84036 40.8334 7.47249 40.3995 7.47249ZM43.2642 10.014C42.7011 10.014 42.3138 9.66289 42.3138 9.11391C42.3138 8.59277 42.6709 8.24164 43.3411 8.24164H44.0744V7.96573C44.0744 7.62855 43.8629 7.4697 43.5278 7.4697C43.1983 7.4697 43.0499 7.60902 43.0033 7.80415H42.4237C42.4594 7.31084 42.8247 6.97923 43.5471 6.97923C44.1678 6.97923 44.6814 7.24122 44.6814 7.9741V9.96944H44.1019V9.58768H44.0744C43.9453 9.81338 43.6926 10.014 43.2642 10.014ZM43.4537 9.53473C43.7998 9.53473 44.0744 9.29502 44.0744 8.97459V8.65688H43.4372C43.0829 8.65688 42.9263 8.838 42.9263 9.08322C42.9263 9.38977 43.179 9.53473 43.4537 9.53473ZM46.5601 6.9848C46.9693 6.9848 47.2824 7.16873 47.395 7.46691H47.4253V5.96484H48.035V9.96944H47.4417V9.49846H47.4115C47.3236 9.79663 46.9748 10.0084 46.5518 10.0084C45.8844 10.0084 45.4504 9.52636 45.4504 8.74883V8.24443C45.4504 7.46691 45.8926 6.9848 46.5601 6.9848ZM46.7304 7.49202C46.3239 7.49202 46.0712 7.79857 46.0712 8.3336V8.65688C46.0712 9.1947 46.3266 9.50125 46.7441 9.50125C47.1561 9.50125 47.4253 9.19749 47.4253 8.69588V8.25002C47.4253 7.79578 47.1314 7.49202 46.7304 7.49202ZM51.3831 6.97366C52.1411 6.97366 52.6712 7.47249 52.6712 8.30018V8.68193C52.6712 9.53752 52.1411 10.0196 51.3831 10.0196C50.614 10.0196 50.0894 9.54304 50.0894 8.68472V8.30297C50.0894 7.4976 50.6223 6.97366 51.3831 6.97366ZM51.3858 7.47249C50.9518 7.47249 50.7046 7.84036 50.7046 8.3336V8.66246C50.7046 9.1557 50.9354 9.52078 51.3858 9.52078C51.8308 9.52078 52.0587 9.15849 52.0587 8.66246V8.3336C52.0587 7.84036 51.8198 7.47249 51.3858 7.47249ZM53.4568 9.96944V7.02383H54.0555V7.55328H54.0857C54.1599 7.32201 54.3713 6.97923 54.9591 6.97923C55.5441 6.97923 55.9369 7.30805 55.9369 7.97968V9.96944H55.3271V8.16085C55.3271 7.71213 55.0965 7.50591 54.7531 7.50591C54.3027 7.50591 54.0664 7.8571 54.0664 8.3336V9.96944H53.4568ZM58.2962 7.0433V6.30762H58.8922V7.0433H59.5431V7.52823H58.8922V9.09159C58.8922 9.41209 59.0103 9.50125 59.3372 9.50125C59.4196 9.50125 59.5294 9.49567 59.5761 9.49009V9.96386C59.5267 9.97223 59.3234 9.98897 59.1861 9.98897C58.4803 9.98897 58.2879 9.73259 58.2879 9.14175V7.52823H57.8458V7.0433H58.2962ZM60.3122 9.96944V5.96484H60.9192V7.55328H60.9494C61.0126 7.34433 61.2488 6.97923 61.8311 6.97923C62.3969 6.97923 62.8006 7.31084 62.8006 7.98247V9.96944H62.1936V8.16364C62.1936 7.71492 61.9492 7.50591 61.6031 7.50591C61.1664 7.50591 60.9192 7.85431 60.9192 8.3336V9.96944H60.3122ZM64.8469 10.0196C64.0556 10.0196 63.5644 9.52636 63.5644 8.69588V8.29739C63.5644 7.46133 64.1025 6.97366 64.8113 6.97366C65.5388 6.97366 66.0525 7.48644 66.0525 8.29739V8.64293H64.1681V8.78784C64.1681 9.21144 64.4156 9.52357 64.8438 9.52357C65.1625 9.52357 65.3825 9.3703 65.4238 9.18633H66.0194C65.9838 9.52636 65.6294 10.0196 64.8469 10.0196ZM64.1681 8.23885H65.4563V8.19985C65.4563 7.75671 65.2013 7.46133 64.8138 7.46133C64.4269 7.46133 64.1681 7.75671 64.1681 8.19985V8.23885Z" fill="white"/>
<path d="M23.8788 20.1149H22.6099L25.1916 12.507H26.5869L29.1632 20.1149H27.8449L27.1802 18.0081H24.5489L23.8788 20.1149ZM25.8947 13.8224H25.8453L24.8291 17.0383H26.9L25.8947 13.8224ZM32.6652 20.1985C31.9127 20.1985 31.3414 19.8363 31.0337 19.2956H30.9898V22.0713H29.7703V14.2237H30.9569V15.0876H31.0008C31.3194 14.5247 31.9127 14.1456 32.6927 14.1456C33.9946 14.1456 34.9229 15.1433 34.9229 16.9046V17.4285C34.9229 19.1785 34.0056 20.1985 32.6652 20.1985ZM32.3851 19.1785C33.1596 19.1785 33.6869 18.5488 33.6869 17.3616V16.9491C33.6869 15.8066 33.1925 15.1544 32.3631 15.1544C31.5117 15.1544 30.9788 15.8568 30.9788 16.9436V17.3616C30.9788 18.4763 31.5172 19.1785 32.3851 19.1785ZM38.8644 20.1985C38.1118 20.1985 37.5406 19.8363 37.2329 19.2956H37.189V22.0713H35.9695V14.2237H37.156V15.0876H37.2C37.5186 14.5247 38.1118 14.1456 38.8919 14.1456C40.1937 14.1456 41.1221 15.1433 41.1221 16.9046V17.4285C41.1221 19.1785 40.2047 20.1985 38.8644 20.1985ZM38.5842 19.1785C39.3588 19.1785 39.8861 18.5488 39.8861 17.3616V16.9491C39.8861 15.8066 39.3917 15.1544 38.5622 15.1544C37.7108 15.1544 37.178 15.8568 37.178 16.9436V17.3616C37.178 18.4763 37.7163 19.1785 38.5842 19.1785ZM43.6492 18.0026H44.8687C44.9236 18.6603 45.4949 19.2232 46.5551 19.2232C47.5274 19.2232 48.1042 18.7606 48.1042 18.0416C48.1042 17.4619 47.7196 17.1498 46.9176 16.9547L45.6872 16.6426C44.7204 16.4141 43.8524 15.8289 43.8524 14.5915C43.8524 13.1368 45.1049 12.3398 46.5606 12.3398C48.0163 12.3398 49.2302 13.1368 49.2577 14.5581H48.0602C48.0053 13.9116 47.5164 13.3765 46.5441 13.3765C45.6872 13.3765 45.1049 13.7889 45.1049 14.4968C45.1049 14.9929 45.4455 15.3496 46.1431 15.5111L47.3681 15.8177C48.4942 16.0964 49.3511 16.637 49.3511 17.9301C49.3511 19.4238 48.1591 20.2654 46.4617 20.2654C44.3743 20.2654 43.6767 19.0281 43.6492 18.0026ZM50.8372 14.2237V12.7913H52.0347V14.2237H53.1662V15.2158H52.0347V18.3593C52.0347 19.0002 52.2709 19.1785 52.9245 19.1785C53.0289 19.1785 53.1278 19.1785 53.1992 19.1674V20.1149C53.1003 20.1317 52.8696 20.1539 52.6224 20.1539C51.2107 20.1539 50.8207 19.6412 50.8207 18.4596V15.2158H50.0187V14.2237H50.8372ZM56.4595 14.1234C58.1294 14.1234 59.0358 15.3161 59.0358 16.9213V17.395C59.0358 19.056 58.1349 20.2152 56.4595 20.2152C54.7841 20.2152 53.8722 19.056 53.8722 17.395V16.9213C53.8722 15.3217 54.7896 14.1234 56.4595 14.1234ZM56.4595 15.1154C55.5532 15.1154 55.1027 15.8679 55.1027 16.938V17.3895C55.1027 18.4429 55.5477 19.2176 56.4595 19.2176C57.3714 19.2176 57.8109 18.4484 57.8109 17.3895V16.938C57.8109 15.8623 57.3659 15.1154 56.4595 15.1154ZM60.0659 20.1149V14.2237H61.2854V14.9984H61.3294C61.4777 14.6306 61.9116 14.1401 62.7194 14.1401C62.8787 14.1401 63.0156 14.1512 63.1312 14.1735V15.2659C63.0269 15.2381 62.8125 15.2213 62.6094 15.2213C61.6315 15.2213 61.3019 15.8344 61.3019 16.6259V20.1149H60.0659ZM66.0894 20.2152C64.535 20.2152 63.5462 19.173 63.5462 17.4285V16.8321C63.5462 15.1879 64.5125 14.1234 66.04 14.1234C67.5887 14.1234 68.5225 15.2269 68.5225 16.8878V17.4507H64.7487V17.5901C64.7487 18.5822 65.2762 19.2399 66.1056 19.2399C66.7262 19.2399 67.1494 18.9277 67.2981 18.4205H68.4569C68.2812 19.3737 67.5231 20.2152 66.0894 20.2152ZM64.7487 16.5868H67.3306V16.5758C67.3306 15.7397 66.82 15.082 66.0456 15.082C65.26 15.082 64.7487 15.7397 64.7487 16.5758V16.5868Z" fill="white"/>
</g>
<defs>
<clipPath id="clip0_3491_15073">
<rect width="75" height="26" fill="white" transform="translate(0 0.652344)"/>
</clipPath>
</defs>
</svg>
