<svg width="1000" height="1000" viewBox="0 0 183 186" fill="none" xmlns="http://www.w3.org/2000/svg">
<g clip-path="url(#clip0_3681_3100)">
<path d="M170.336 1.07523L0 24.9453L12.239 112.282L182.575 88.4123L170.336 1.07523Z" fill="#FAC9FA"/>
<mask id="mask0_3681_3100" style="mask-type:luminance" maskUnits="userSpaceOnUse" x="18" y="19" width="147" height="76">
<path d="M18.0652 38.5697L156.71 19.1406L164.509 74.7873L25.8633 94.2165L18.0652 38.5697Z" fill="white"/>
</mask>
<g mask="url(#mask0_3681_3100)">
<path d="M116.47 36.6192C119.847 36.146 122.522 38.422 122.97 41.6174C123.418 44.8132 121.471 47.7366 118.094 48.2098C114.717 48.6831 112.041 46.4074 111.594 43.2117C111.146 40.0163 113.092 37.0925 116.47 36.6192ZM116.021 33.4213C110.909 34.1377 107.67 38.6971 108.366 43.664C109.062 48.6309 113.43 52.1242 118.542 51.4078C123.654 50.6914 126.894 46.132 126.197 41.1651C125.501 36.1982 121.134 32.7049 116.021 33.4213Z" fill="black"/>
</g>
<mask id="mask1_3681_3100" style="mask-type:luminance" maskUnits="userSpaceOnUse" x="18" y="19" width="147" height="76">
<path d="M18.0652 38.5697L156.71 19.1406L164.509 74.7873L25.8633 94.2165L18.0652 38.5697Z" fill="white"/>
</mask>
<g mask="url(#mask1_3681_3100)">
<path d="M97.5092 39.2756C100.886 38.8023 103.562 41.0784 104.009 44.2738C104.457 47.4695 102.511 50.3929 99.1334 50.8662C95.7563 51.3395 93.081 49.0637 92.6331 45.868C92.1853 42.6726 94.132 39.7489 97.5092 39.2756ZM97.061 36.0776C91.9489 36.794 88.7092 41.3535 89.4053 46.3204C90.1013 51.2873 94.4694 54.7806 99.5816 54.0642C104.694 53.3478 107.933 48.7884 107.237 43.8215C106.541 38.8546 102.173 35.3612 97.061 36.0776Z" fill="black"/>
</g>
<mask id="mask2_3681_3100" style="mask-type:luminance" maskUnits="userSpaceOnUse" x="18" y="19" width="147" height="76">
<path d="M18.0652 38.5697L156.71 19.1406L164.509 74.7873L25.8633 94.2165L18.0652 38.5697Z" fill="white"/>
</mask>
<g mask="url(#mask2_3681_3100)">
<path d="M54.6167 81.0304C58.9239 77.4647 61.3364 71.7508 60.4924 65.728C59.2089 56.5689 50.8807 50.1653 41.8907 51.4251C35.9795 52.2534 31.2546 56.1894 29.0764 61.3919C29.6888 52.4969 36.3304 44.9417 45.3471 43.6781C55.7212 42.2243 65.3663 49.6406 66.8475 60.2102C68.1348 69.3967 62.8363 77.9846 54.6167 81.0304ZM31.7001 69.7628C30.7149 62.7324 35.5272 56.2258 42.4279 55.2588C49.3286 54.2918 55.7443 59.2249 56.7296 66.2553C57.7148 73.286 52.9022 79.7927 46.0015 80.7597C38.9546 81.7473 32.6644 76.6441 31.7001 69.7628ZM44.8098 39.8444C32.3407 41.5918 23.676 53.3069 25.4562 66.0105C27.2382 78.7264 38.7857 87.5966 51.2567 85.849C63.7255 84.1017 72.3906 72.3868 70.6103 59.6829C68.8301 46.9792 57.2786 38.0971 44.8098 39.8444Z" fill="black"/>
</g>
<mask id="mask3_3681_3100" style="mask-type:luminance" maskUnits="userSpaceOnUse" x="18" y="19" width="147" height="76">
<path d="M18.0652 38.5697L156.71 19.1406L164.509 74.7873L25.8633 94.2165L18.0652 38.5697Z" fill="white"/>
</mask>
<g mask="url(#mask3_3681_3100)">
<path d="M81.4074 45.9815L79.5834 46.2372L78.9491 41.7108L80.749 41.4586C82.3679 41.2317 83.4117 41.922 83.6121 43.3523C83.8089 44.756 82.964 45.7634 81.4074 45.9815ZM83.7252 53.2145L80.6221 53.6493L79.9533 48.8767L83.105 48.435C84.7456 48.2051 85.8518 48.9739 86.0644 50.4911C86.2675 51.9402 85.3711 52.9838 83.7252 53.2145ZM77.8729 56.7513L84.7273 55.7908C87.8438 55.3541 89.6683 53.1348 89.2667 50.2687C88.7302 46.4405 85.1258 46.5221 85.1258 46.5221C85.1258 46.5221 87.1234 45.6884 86.6898 42.5949C86.2965 39.7883 84.0252 38.2576 80.904 38.695L75.4497 39.4594L77.8729 56.7513Z" fill="black"/>
</g>
<mask id="mask4_3681_3100" style="mask-type:luminance" maskUnits="userSpaceOnUse" x="18" y="19" width="147" height="76">
<path d="M18.0652 38.5697L156.71 19.1406L164.509 74.7873L25.8633 94.2165L18.0652 38.5697Z" fill="white"/>
</mask>
<g mask="url(#mask4_3681_3100)">
<path d="M89.7085 62.0393L89.2834 59.0059L78.4028 60.5306L80.8261 77.8226L91.7066 76.2978L91.2815 73.2644L83.5718 74.3448L82.9711 70.0581L89.3529 69.1638L88.9519 66.3029L82.5702 67.1972L81.9988 63.1197L89.7085 62.0393Z" fill="black"/>
</g>
<mask id="mask5_3681_3100" style="mask-type:luminance" maskUnits="userSpaceOnUse" x="18" y="19" width="147" height="76">
<path d="M18.0652 38.5697L156.71 19.1406L164.509 74.7873L25.8633 94.2165L18.0652 38.5697Z" fill="white"/>
</mask>
<g mask="url(#mask5_3681_3100)">
<path d="M119.271 57.8967L118.846 54.8633L107.965 56.3881L110.388 73.6801L121.269 72.1553L120.844 69.1219L113.134 70.2023L112.533 65.9155L118.915 65.0212L118.514 62.1603L112.132 63.0546L111.561 58.9771L119.271 57.8967Z" fill="black"/>
</g>
<mask id="mask6_3681_3100" style="mask-type:luminance" maskUnits="userSpaceOnUse" x="18" y="19" width="147" height="76">
<path d="M18.0652 38.5697L156.71 19.1406L164.509 74.7873L25.8633 94.2165L18.0652 38.5697Z" fill="white"/>
</mask>
<g mask="url(#mask6_3681_3100)">
<path d="M155.407 67.3701L158.626 66.9189L156.203 49.627L152.984 50.0781L155.407 67.3701Z" fill="black"/>
</g>
<mask id="mask7_3681_3100" style="mask-type:luminance" maskUnits="userSpaceOnUse" x="18" y="19" width="147" height="76">
<path d="M18.0652 38.5697L156.71 19.1406L164.509 74.7873L25.8633 94.2165L18.0652 38.5697Z" fill="white"/>
</mask>
<g mask="url(#mask7_3681_3100)">
<path d="M107.801 74.042L105.378 56.75L102.225 57.1918L103.837 68.691L94.7853 58.2344L91.0093 58.7635L91.7875 59.6627L94.0722 75.9659L97.2913 75.5148L95.7039 64.1868L104.621 74.4877L107.801 74.042Z" fill="black"/>
</g>
<mask id="mask8_3681_3100" style="mask-type:luminance" maskUnits="userSpaceOnUse" x="18" y="19" width="147" height="76">
<path d="M18.0652 38.5697L156.71 19.1406L164.509 74.7873L25.8633 94.2165L18.0652 38.5697Z" fill="white"/>
</mask>
<g mask="url(#mask8_3681_3100)">
<path d="M124.537 56.8065L127.482 56.3938C129.101 56.1669 130.144 56.8572 130.345 58.2878C130.542 59.6912 129.697 60.6986 128.14 60.9167L125.171 61.3328L124.537 56.8065ZM130.581 62.5869C131.462 62.1826 133.89 60.8651 133.423 57.5301C133.029 54.7238 130.758 53.1931 127.637 53.6305L121.037 54.5554L123.46 71.847L126.583 71.4094L125.538 63.9557L126.015 63.889C128.142 63.5908 131.541 65.4215 132.269 70.6127L135.41 70.1725C134.724 65.2778 131.956 63.318 130.581 62.5869Z" fill="black"/>
</g>
<mask id="mask9_3681_3100" style="mask-type:luminance" maskUnits="userSpaceOnUse" x="18" y="19" width="147" height="76">
<path d="M18.0652 38.5697L156.71 19.1406L164.509 74.7873L25.8633 94.2165L18.0652 38.5697Z" fill="white"/>
</mask>
<g mask="url(#mask9_3681_3100)">
<path d="M143.865 59.6679L144.255 62.4554L149.609 61.7051C149.081 63.8795 147.36 65.5954 144.842 65.9483C141.465 66.4215 138.789 64.1455 138.341 60.9498C137.894 57.7544 139.841 54.8306 143.218 54.3573C144.976 54.1108 146.507 54.5456 147.763 55.4495L149.308 52.7491C147.518 51.4474 145.231 50.8145 142.77 51.1594C137.657 51.8758 134.418 56.4355 135.114 61.4021C135.81 66.369 140.178 69.8623 145.29 69.1459C149.969 68.4903 153.493 64.6174 152.627 58.44L143.865 59.6679Z" fill="black"/>
</g>
<path d="M2.76025 24.5625L24.1956 184.926" stroke="white" stroke-width="5"/>
</g>
<defs>
<clipPath id="clip0_3681_3100">
<rect width="183" height="185" fill="white" transform="translate(0 0.460938)"/>
</clipPath>
</defs>
</svg>
