<svg width="518" height="553" viewBox="0 0 518 553" fill="none" xmlns="http://www.w3.org/2000/svg">
<path d="M276.5 46.561C231.372 46.561 188.392 59.4548 151.144 83.8098C166.187 80.2282 182.662 78.0791 199.137 78.0791C309.451 78.079 398.275 167.619 398.275 277.216C398.275 332.373 376.069 381.799 339.537 418.332C303.721 454.148 253.578 477.07 198.421 477.07C181.946 477.07 166.187 474.921 151.144 471.339C186.96 494.262 229.939 507.872 275.784 507.872C337.387 507.872 395.41 484.233 439.105 440.538C482.801 396.842 506.439 338.82 506.439 277.216C506.439 150.428 403.289 46.561 275.783 46.561M45.8445 269.337C45.8445 269.337 45.8445 274.351 45.8445 277.217C45.8445 361.742 114.611 430.509 199.137 430.509C239.968 430.509 278.649 414.75 307.302 385.381C335.955 356.728 352.43 318.047 352.43 277.216C352.43 236.386 336.671 197.705 307.302 169.052C277.933 140.399 239.967 123.924 199.137 123.924C158.307 123.924 119.626 139.683 90.9731 169.052C63.7529 196.272 47.9936 232.088 46.561 270.053M276.5 3.68628e-05C429.076 2.35241e-05 553 123.924 553 276.5C553 353.146 522.198 421.913 472.056 472.056C421.913 522.198 353.146 553 276.5 553C127.505 553 5.73056 434.807 -2.32957e-05 286.529C-2.36088e-05 282.947 -2.39219e-05 279.365 -2.41724e-05 276.5C-2.44229e-05 273.635 -2.47986e-05 269.337 -2.50491e-05 266.472C2.86525 194.123 32.9511 128.938 80.9446 80.9444C131.087 30.8019 199.854 4.35634e-05 276.5 3.68628e-05Z" fill="#FF5500"/>
</svg>
