<?xml version="1.0" encoding="UTF-8"?>
<svg id="Lager_1" xmlns="http://www.w3.org/2000/svg" version="1.1" viewBox="0 0 700 700">
  <!-- Generator: Adobe Illustrator 29.2.1, SVG Export Plug-In . SVG Version: 2.1.0 Build 116)  -->
  <defs>
    <style>
      .st0 {
        fill: #f49b68;
      }

      .st1 {
        stroke-width: 1.6px;
      }

      .st1, .st2, .st3, .st4, .st5, .st6, .st7, .st8, .st9, .st10, .st11, .st12, .st13, .st14, .st15, .st16 {
        fill: none;
      }

      .st1, .st2, .st3, .st4, .st8, .st9, .st14, .st15, .st16 {
        stroke-linecap: round;
      }

      .st1, .st5, .st6, .st7, .st9, .st10, .st11, .st12, .st13, .st14, .st15, .st16 {
        stroke: #ea5616;
      }

      .st17 {
        fill: #5c2d41;
      }

      .st18 {
        fill: #f6eae9;
      }

      .st2, .st3 {
        stroke: #531732;
      }

      .st2, .st15 {
        stroke-width: 2.5px;
      }

      .st3 {
        stroke-width: 4.9px;
      }

      .st19 {
        fill: #ea5b21;
      }

      .st20 {
        fill: #1e3636;
      }

      .st21 {
        fill: #92d3ea;
      }

      .st22 {
        fill: #fff;
      }

      .st23 {
        fill: #f9e1ee;
      }

      .st24 {
        font-size: 3.7px;
      }

      .st24, .st25, .st26, .st27, .st28, .st29, .st30, .st31, .st32, .st33, .st34, .st35, .st36, .st37, .st38, .st39, .st40, .st41 {
        font-family: BooEnergiSans-Regular, 'Boo Energi Sans';
      }

      .st24, .st25, .st26, .st27, .st28, .st29, .st30, .st31, .st32, .st33, .st34, .st35, .st36, .st37, .st38, .st39, .st40, .st41, .st42 {
        fill: #ea5616;
      }

      .st25 {
        font-size: 3.7px;
      }

      .st26 {
        font-size: 3.7px;
      }

      .st27 {
        font-size: 3.7px;
      }

      .st28 {
        font-size: 3.7px;
      }

      .st29 {
        font-size: 3.7px;
      }

      .st30 {
        font-size: 3.7px;
      }

      .st31 {
        font-size: 3.7px;
      }

      .st32 {
        font-size: 3.7px;
      }

      .st33 {
        font-size: 3.7px;
      }

      .st34 {
        font-size: 3.7px;
      }

      .st35 {
        font-size: 3.7px;
      }

      .st36 {
        font-size: 3.7px;
      }

      .st37 {
        font-size: 3.7px;
      }

      .st38 {
        font-size: 6.2px;
      }

      .st39 {
        font-size: 6.2px;
      }

      .st40 {
        font-size: 6.2px;
      }

      .st41 {
        font-size: 6px;
      }

      .st4 {
        stroke-width: 2.1px;
      }

      .st4, .st8 {
        stroke: #2e7bbf;
      }

      .st43 {
        fill: #ef7c41;
      }

      .st5 {
        stroke-width: .4px;
      }

      .st5, .st6, .st7 {
        stroke-miterlimit: 10;
      }

      .st6 {
        stroke-width: .3px;
      }

      .st7 {
        stroke-width: .2px;
      }

      .st8 {
        stroke-width: 3px;
      }

      .st9 {
        stroke-width: 1.9px;
      }

      .st10 {
        stroke-width: 1.2px;
      }

      .st11 {
        stroke-width: 1px;
      }

      .st12 {
        stroke-width: .7px;
      }

      .st13 {
        stroke-width: .6px;
      }

      .st14 {
        stroke-width: 3.1px;
      }

      .st16 {
        stroke-width: 2.6px;
      }
    </style>
  </defs>
  <path class="st18" d="M55.8,321.3s-9.4-25.6-4.7-32.3c4.7-6.8,10.5-27.1,15.9-28.8,5.4-1.7,12.4-5.2,12.4-5.2l30.6-31.3s28.9-19.4,31.5-18.5c2.6.9,2.2,11.4,5.3,13.1,3.1,1.7,7.9,2.6,11.4,1.7,3.5-.9,7-3.5,7-3.5,0,0,5.4-6.1,5.4-8.7s-1.1.9,3.7,3.5c4.9,2.6,6.6,5.1,11.9,8.7,5.3,3.7,20.3,3.7,23.6,3.7s12.1,5.3,12.1,5.3c0,0,4.3-8.1,0-10.7-4.3-2.6-16.5-9.7-20-13.1-3.5-3.5-7.7-6,1.8-9.6s27.1-13.1,27.1-13.1c0,0,13.1,4.4,14.9,0,1.8-4.4.5-12.2-3.5-12.2s-29.1,5.2-29.1,5.2c0,0-12.1,3.5-10.3-.9,1.8-4.4,10.3-15.7,10.3-15.7,0,0,3.8-13.1,18.6-16.6,14.8-3.5,25.4-10.5,31.5-14.9,6.1-4.4,12.5-12.2,24.9-14,12.4-1.7,24.7,0,24.7,0,0,0-.6-.8,14.4-.8s12.6,9.5,15,13.9c2.4,4.4,12.1,10.5,15.6,5.2,3.5-5.2,7-19.1,12.3-19.1h12.3s5.3-8.8,12.3-8.8,12.3,3.5,20.1,4.4c7.9.9,6.1-5.2,13.1-.9,7,4.4,10.5,11.4,11.4,14.9.9,3.5,7.9,11.4,7,21.9-.9,10.5,6.1,14.9,9.6,19.2,3.5,4.4,7,6.1,10.5,13.1,3.5,7,8.8,18.4,7.9,22.7-.9,4.4,4.4,13.5,8.8,13.5s9.6,5.7,9.6,0-19.3-38.9-19.3-43.3-8.8-16.6,3.5-14.9c12.3,1.7,29.6,4.4,33.3,7.9,3.7,3.5,23.6,26,29.8,29.6,6.1,3.6,10.5,4,14,12.4s9.6,40.2,12.3,45.5c2.6,5.2,1.8,7.9,6.1,5.2s40.3-35,40.3-35c0,0,4.4-13.1,14.9-7.4,10.5,5.7,25.4.3,28.9,11.1s4.4,15.6,0,15.6-10.5-4.8-10.5-4.8c0,0-12.3,17.1-9.6,22.3,2.6,5.2,14.9,3.5,14.9,3.5,0,0,8.2,7.9,8.2,11.4s7.5,4.8,10.2,21.9,0,26.2-7.9,35.8c-7.9,9.6-13.1,10.5-18.4,14-5.3,3.5-10.5-3.5-15.8,0-5.3,3.5-12.3,10.7-11.4,20.2.9,9.5-1.8,16-1.8,25.8s1.8,25.7-3.5,25.7h-31.5c-10.5,0,3.5,15.9,2.6,21.8-.9,5.9-12.3,7-24.5,9.6-12.3,2.6-22.8,5.2-30.6,2.6-7.9-2.6-14.9-6.1-9.6-12.2,5.3-6.1,13.1-18.3,7-18.3h-25.4l-49.9-44.7s-24.5-16.6-27.1-21.8c-2.6-5.3-8.8-17.5-11.4-17.5s-24.5-13.1-24.5-13.1h-7s9.6,13.7,16.6,21.9,8.8,16.8,14.9,20.2c6.1,3.4,19.3,10.7,24.5,18.3,5.3,7.5,6.1,19.2,4.4,26.2s-1.8,12.6-2.6,16.2c-.9,3.5-26.3,48.3-29.8,60.7-3.5,12.3-29.8,49.2-34.1,53.9-4.4,4.7-29.8,23.1-35.9,34.4-6.1,11.4-24,21-24,21,0,0-19.8,1.7-28.5,14.9s-.9,14-21.9,15.7c-21,1.7-13.3-4.4-24.2-7.9-10.8-3.5-19.9-5.2-25-1.7-5.1,3.5-13,9.9-13,9.9,0,0-2.6-9.9-7-8.2-4.4,1.7-7,5.9-10.5,8.2-3.5,2.3-13.1,0-19.3,0s-7.8-2.9-13.5-6.4c-5.7-3.5-30.2-7-30.2-7,0,0,4.4,6.1-8.8,7-13.1.9-20.1,1.7-28,0-7.9-1.7-15.9-1.7-15.9-11.4v-14.9s-11-13.1-15.9-22.7c-4.9-9.6-4.9-14-4.9-14,0,0-5.6,3-5.6-3.3s10.5-19.4,10.5-23.8v-28s4.7-28.8,4.7-33.2v-20.1c0-4.6.2-14-4.7-23.2-4.9-9.2-12.5-23.9-16.2-34.9-3.6-11-8.9-19.5-6.3-25.8,2.6-6.2,6.3-12,6.3-12,0,0,1.8-4.7,5.6-10.8,3.9-6.1-.5-20.5,3-20.5s7.5,5.6,7.5,5.6l4.7.9v-5.2h0Z"/>
  <path class="st21" d="M362,310.7s5,7.1-2.8,8.5c-7.8,1.4-9.9,8.5-12.8,0-2.8-8.5-2.8-9.9-2.8-12.8s-5-8.5-8.5-8.5-5.7-11.3-12.8-11.3-12-2.8-14.9,0c-2.8,2.8-7.1,9.1-9.9.7-2.8-8.4-8.5-8.4-5.7-15.3,2.8-6.8,2.8-8.7,3.5-13.7.7-5-3.5-13.5-3.5-17.1s-.8-9.9-.8-9.9c0,0,10.7,2.8,10.7,7.8s8.5,4.9,14.9,12c6.4,7.2,11.4,14,11.4,14,0,0-4.3-1.5-5.7,5.3-1.4,6.8,7.1,7.7,9.9,12.6,2.8,4.9,15,14.8,17.1,14.8s12.7,12.8,12.7,12.8h0Z"/>
  <path class="st3" d="M37.4,480.1s24.5-5.8,31.5-1.4c7,4.4,21,3.5,28.9,3.5s85.8-14,94.5-14.9c8.8-.9,59.5-7.9,74.4-15.7,14.9-7.9,18.4-18.4,25.4-21.9,7-3.5,27.1-13.1,30.6-14.9,3.5-1.7,41.1-40.2,49-41.1,7.9-.9,35-12.2,54.3-6.1,19.3,6.1,41.1,27.1,43.8,30.6,2.6,3.5,29.8,16.2,35.9,21,6.1,4.8,18.4,17.5,22.8,27.1,4.4,9.6,20.1,21.9,20.1,21.9"/>
  <path class="st15" d="M63.7,476.6s11.2-4.2,17.5-6.3c6.3-2.1,16.1-2.1,21-5.6,4.9-3.5,28.7-23.1,35-25.2,6.3-2.1,52.5-30.1,63.7-31.5,11.2-1.4,51.8-23.1,56.7-25.2s19.6-15.5,21-17.5c1.4-2,1.4-22.4,4.9-25.2s12.6-6.3,16.8-7.7c4.2-1.4,20.3-11.2,21.7-11.2s6.3,0,11.2,2.1c4.9,2.1,12.6,7.7,20.3,9.8,7.7,2.1,10.5.7,16.1,3.5,5.6,2.8,9.1,8.4,14,9.1,4.9.7,26.6-.7,30.8-.7s16.8-7,21.7-7.7c4.9-.7,20.3,1.4,25.2.7,4.9-.7,2.1-4.9,12.6-2.1,10.5,2.8,13.3,7.7,14.7,9.8,1.4,2.1,11.9,5.6,18.2,7,6.3,1.4,5.6,0,5.6,0M327.8,320.1s-4.2-3.8-4.2-9.7,2.8-9.4,5.6-12.2,9.8-9.1,4.9-13.3c-4.9-4.2-21.7-12.6-21.7-15.4s-4.9-18.9-4.9-23.1-4.2-8.4-2.1-11.9c2.1-3.5,2.8-5.6,2.8-5.6,0,0-6.3-8.4-7-11.9-.7-3.5,0-11.2,2.8-11.9,2.8-.7,6.3-2.1,11.2-7.7,4.9-5.6,11.9-11.9,11.9-11.9,0,0,2.8-2.1,1.4-6.3-1.4-4.2-9.8-14-8.4-16.8,1.4-2.8,12.6-11.2,12.6-11.2,0,0,6.3-2.8,8.4-2.8M239.5,197.6s8.4-7,12.6-3.5c4.2,3.5,5.6,4.9,7,8.4,1.4,3.5,4.2,9.1,4.2,9.1,0,0,14.7,6.3,16.8,8.4,2.1,2.1,3.5,1.4,3.5,4.9s-3.5,11.9-2.8,15.4c.7,3.5,6.3,14.7,11.9,16.8,5.6,2.1,18.9,7.7,18.9,7.7M321,413.6c-1.6,0-9.3-4.2-10.7-7.7-1.4-3.5-2.1-4.9-5.6-7-3.5-2.1-9.1-6.3-10.5-7.7-1.4-1.4-9.8-8.4-9.8-9.8s-4.2-14.7-4.2-14.7l-1.2-1.4M274.9,368.8s-10.2-5.4-13-5.4-12.6-3.6-16.8-7.1c-4.2-3.5-11.9-8.4-13.3-8.4s-17.5-.7-21,4.9-19.6,39.9-20.3,42c-.7,2.1-7.7,20.1-7.7,20.1,0,0-.7,14.9-4.9,24.6-4.2,9.8-7,23.1-5.6,29.4,1.4,6.3,6.3,12.8,9.8,15.8,3.5,3.1,8.4,13.5,8.4,17s-7.7,11.2-7,14.7c.7,3.5,0,9.8-.7,13.3-.7,3.5-.7,7.7-.7,7.7M71.8,473.1s1.1,5.2,1.1,9.4,1.1,9.1,0,11.2c-1.1,2.1-4.6,7.3-4.6,11.9s5.3,17.8,6.3,21c1.1,3.1,9.8,12.1,11.9,12.1s10.2-.2,13,1.2c2.8,1.4,15.1,11.2,19.3,11.2s12.6-2.8,14.4-3.5,8.8-.3,14,0c5.3.3,12.6-.2,23.6-4.5,11.1-4.4,26.5-11.9,32.1-13.3,5.6-1.4,34.3-11.2,40.3-12.2,6-1,22.8-3.1,25.9-3.5,3.2-.3,10-.7,10-1.9s-5.8-7.2-6.5-10c-.7-2.8-5.3-19.1-4.6-21.7.7-2.6,2.5-9.8,3.9-14,1.4-4.2.7-9.8-1.1-12.9-1.8-3.1-6.3-17.5-6.7-19.6-.4-2.1-9.8-16.4-10.9-19-1.1-2.6-14.7-21.9-14.7-21.9M211.9,350.7s1.4-9.4-3.9-14.3-6.3-8-15.4-7.3c-9.1.7-12.4,2.9-19,1.4-6.6-1.5-23-15.4-25.5-18.5-2.5-3.1-9.8-8.4-16.8-10.5-7-2.1-16.8-5.2-18.2-5.9-1.4-.7-4.6-7.3-12.6-6.6-8.1.7-20.7,1.6-23.8,0-3.2-1.7-10.3-5.2-12.3-5.2s-3.5-.7-5.3,1c-1.8,1.7-2.1,3.1-2.1,3.1"/>
  <path class="st2" d="M41.9,486.1s1.6-7.1,9.3-7.1,7.9,3.1,8.6,4.7c.7,1.7.7,2.4.7,2.4"/>
  <path class="st18" d="M360.7,118.5s-11.4-4.7-11.4-9.8,0-6.3,5.7-7.7c5.7-1.4,7.1-3.5,10.6-6.3,3.5-2.8,9.1-6.3,13.3-7,4.2-.7,8.4,0,12.6,0s14-3.4,14-.3-2.1,5.3-7.7,10.1c-5.6,4.8-15.6,6.3-20.4,9.1-4.8,2.8-15.3,11.9-15.3,11.9h-1.4Z"/>
  <path class="st18" d="M425.1,82.2s7.7,8,9.8,4c2.1-4,.7-6.1,4.2-6.8s7,0,11.9,0,6.3-.3,6.3,3.8v4.1c0,3.3-1.4,6.6,4.2,3.3,5.6-3.3,14.7-11.5,18.9-11.5h14l3.5-6s-4.2,5.8,0,9.4c4.2,3.6,16,9.4,16,9.4,0,0,7.8,9.1,10.6,10.4,2.8,1.3,7,2.9,3.5,11.3s-2.8,16.8-19.6,11.9c-16.8-4.9-16.4-9.8-23.8-11.9s-19.6-5.6-21-3.5c-1.4,2.1-2.1,8.4-7.7,8.4s-9.8-2-8.4-9.1c1.4-7.1,4.9-11.2.7-13.3-4.2-2.1-10.5,1.4-16.8-1.4s-9.8-8.6-9.8-8.6l3.5-4h0Z"/>
  <path class="st18" d="M458,127s7.7-9.9,12.6-4.9c4.9,4.9,9.7.1,4.9,4.9-4.9,4.8-4.9,8.3-4.2,10.4.7,2.1.7,6.3.7,6.3,0,0-.1-2.1-4.3-4.2-4.1-2.1-9.7-12.5-9.7-12.5h0Z"/>
  <path class="st18" d="M526.7,86.2c2.7,0,0,7.5,7.7,10.7,7.7,3.2,9.1,5.4,9.1,0s-2.7-6.7-8.4-10.7c-5.7-4-8.4,0-8.4,0h0Z"/>
  <path class="st18" d="M551.2,106s7.7,10.5,7.7,12.6-2.8,3.5,0,4.2c2.8.7,5.6-4.2,7.7-4.2s5.6-6.3,2.8-7c-2.8-.7-10.5-3.3-11.9-5.6s-6.3,0-6.3,0h0Z"/>
  <path class="st18" d="M483.2,57s-5.7,4.9-5.7,7,2.9,2.8,5.7,3.5c2.8.7,1.4,3.5,6.3,0,4.9-3.5,7-4.4,3.5-4.4s-9.8-6.1-9.8-6.1h0Z"/>
  <path class="st18" d="M444,454.9v9.8c0,7.3,2.1,14.7,7,7.3s8.4-3.1,11.2-10.1c2.8-7,9.1-7,0-7h-18.2Z"/>
  <path class="st18" d="M322.2,594.8s-12.1,6.3-16.9,11.2c-4.8,4.9,7.5,7,7.5,7,0,0,9.3-4.9,9.3-7v-11.2h0Z"/>
  <path class="st18" d="M203.8,639.5s-16.8-5.6-21-4.2c-4.2,1.4-6.3.7-5.6,4.2.7,3.5,2.1,4.9,5.6,4.9s21-4.9,21-4.9h0Z"/>
  <path class="st18" d="M121.2,626l5.6,9.1-2.8,4.7s-13.3-3-12.6-6.9c.7-3.8-.7-6.9,3.5-6.9h6.3Z"/>
  <path class="st18" d="M35,290.6s-5.6,4.2,0,6.3c5.6,2.1,9.1,0,9.1,0,0,0,5.6-6.3,2.8-6.3s-1.7-5.6-6.8-2.8l-5.1,2.8h0Z"/>
  <path class="st42" d="M104.4,449.3v-10s1.6-5,1.6-5c.2-1.1-.6-1.7-1.4-1.7h-4.1c-.8,0-1.6.7-1.4,1.7l1.8,5v10"/>
  <path class="st22" d="M102.9,434.4s0,0,0,0c0,0,0,0,0,.1,0,.3-.1.9-.1.9h.9s0,0,0,0c0,0,0,0,0,.1l-1.3,1.4s0,0,0,0,0,0,0,0c0,0,0,0,0-.1,0-.3.1-.9.1-.9h-.9s0,0,0,0c0,0,0,0,0-.1l1.3-1.4s0,0,0,0M102.9,434.1h0c-.1,0-.2,0-.3.1l-1.3,1.4h0s0,0,0,0c-.1.1-.1.3,0,.4,0,.1.2.2.4.2h.6c0,.2,0,.5,0,.6,0,.2,0,.3.2.4,0,0,.1,0,.2,0,.1,0,.2,0,.3-.1l1.3-1.4h0s0,0,0,0c.1-.1.1-.3,0-.4,0-.1-.2-.2-.4-.2h-.6c0-.2,0-.5,0-.6,0-.2,0-.3-.2-.4,0,0-.1,0-.2,0h0Z"/>
  <path class="st42" d="M105.2,437.2s1.2,0,1.4.4c.5.5,1,1.9,1,1.9l-.9.4s-.2-1-.9-1.3c-.7-.3-1.1,0-1.1,0l.4-1.3h0Z"/>
  <path class="st5" d="M106.9,438.5s.3,1.9,1.2,3c1.3,1.7,1.4,1.2,1.9,1.6"/>
  <path class="st42" d="M118.7,444.6v-8.5s1.4-4.3,1.4-4.3c.2-.9-.5-1.5-1.2-1.5h-3.5c-.6,0-1.3.6-1.2,1.5l1.5,4.3v8.5"/>
  <path class="st22" d="M117.5,432s0,0,0,0c0,0,0,0,0,.1,0,.2-.1.8-.1.8h.8s0,0,0,0c0,0,0,0,0,0l-1.1,1.2s0,0,0,0,0,0,0,0c0,0,0,0,0-.1,0-.2.1-.8.1-.8h-.8s0,0,0,0c0,0,0,0,0,0l1.1-1.2s0,0,0,0M117.5,431.7h0c0,0-.2,0-.3.1l-1.1,1.2h0s0,0,0,0c0,.1-.1.2,0,.4,0,.1.2.2.3.2h.5c0,.2,0,.4,0,.5,0,.2,0,.3.2.4,0,0,.1,0,.2,0,0,0,.2,0,.3-.1l1.1-1.2h0s0,0,0,0c0-.1.1-.2,0-.4,0-.1-.2-.2-.3-.2h-.5c0-.2,0-.4,0-.5,0-.2,0-.3-.2-.4,0,0-.1,0-.2,0h0Z"/>
  <path class="st42" d="M119.4,434.4s1,0,1.2.3c.5.5.9,1.6.9,1.6l-.8.4s-.2-.9-.8-1.1-1,0-1,0l.4-1.1h0Z"/>
  <path class="st6" d="M120.9,435.5s.3,1.6,1,2.5c1.1,1.4,1.2,1,1.6,1.3"/>
  <path class="st42" d="M131.3,439.1v-6.3s1-3.2,1-3.2c.1-.7-.4-1.1-.9-1.1h-2.6c-.5,0-1,.5-.9,1.1l1.1,3.2v6.3"/>
  <path class="st22" d="M130.3,429.8s0,0,0,0c0,0,0,0,0,0,0,.2,0,.6,0,.6h.6s0,0,0,0c0,0,0,0,0,0l-.8.9s0,0,0,0,0,0,0,0c0,0,0,0,0,0,0-.2,0-.6,0-.6h-.6s0,0,0,0c0,0,0,0,0,0l.8-.9s0,0,0,0M130.3,429.6h0c0,0-.1,0-.2,0l-.8.9h0s0,0,0,0c0,0,0,.2,0,.3,0,0,.1.1.2.1h.4c0,.1,0,.3,0,.4,0,.1,0,.2.1.3,0,0,0,0,.1,0,0,0,.1,0,.2,0l.8-.9h0s0,0,0,0c0,0,0-.2,0-.3,0,0-.1-.1-.2-.1h-.4c0-.1,0-.3,0-.4,0-.1,0-.2-.1-.3,0,0,0,0-.1,0h0Z"/>
  <path class="st42" d="M131.7,431.6s.7,0,.9.2c.3.3.6,1.2.6,1.2l-.6.3s-.1-.6-.6-.8c-.4-.2-.7,0-.7,0l.3-.8h0Z"/>
  <path class="st7" d="M132.8,432.4s.2,1.2.7,1.9c.8,1,.9.8,1.2,1"/>
  <polygon class="st42" points="97.6 405.3 97.6 424.1 163.1 424.1 163.1 405.3 97.6 405.3 97.6 405.3"/>
  <polygon class="st43" points="163.1 400.9 163.1 424.1 165.1 411.9 165.1 400.9 163.1 400.9 163.1 400.9"/>
  <polygon class="st0" points="101.6 400.9 97.7 405.3 163 405.3 165.1 400.9 101.6 400.9 101.6 400.9"/>
  <path class="st22" d="M108.2,401.2h-4.6c-.2,0-.4,0-.6,0v.2c.2,0,.3,0,.4,0h1.2s-.8,1.1-.8,1.1h-1.6s.2-.2.2-.2c0,0,0,0,0,0h0c0-.1-2.1,2.5-2.1,2.5-.2.3,0,.5.3.5h4.6c.4,0,.9-.1,1.1-.4l2.4-3c.2-.3,0-.5-.3-.5h0ZM101.7,404.8h-1.2c-.2,0-.3-.1-.2-.3l.6-.8h1.6s-.8,1.1-.8,1.1h0ZM102.7,403.6h-1.6s.8-1.1.8-1.1h1.6s-.8,1.1-.8,1.1h0ZM103.6,404.8h-1.6s.8-1.1.8-1.1h1.6s-.8,1.1-.8,1.1h0ZM104.6,403.6h-1.6s.8-1.1.8-1.1h1.6s-.8,1.1-.8,1.1h0ZM105.6,402.4h-1.6s.8-1.1.8-1.1h1.6s-.8,1.1-.8,1.1h0ZM105.7,404.6c-.1.1-.4.3-.6.2h-1.2s.8-1.1.8-1.1h1.6s-.6.8-.6.8h0ZM106.5,403.6h-1.6s.8-1.1.8-1.1h1.6s-.8,1.1-.8,1.1h0ZM107.5,402.4h-1.6s.8-1.1.8-1.1h1.2c.2,0,.3.1.2.3l-.6.8h0Z"/>
  <path class="st22" d="M129.3,401.2h-4.6c-.2,0-.4,0-.6,0v.2c.2,0,.3,0,.4,0h1.2s-.8,1.1-.8,1.1h-1.6s.2-.2.2-.2c0,0,0,0,0,0h0c0-.1-2.1,2.5-2.1,2.5-.2.3,0,.5.3.5h4.6c.4,0,.9-.1,1.1-.4l2.4-3c.2-.3,0-.5-.3-.5h0ZM122.9,404.8h-1.2c-.2,0-.3-.1-.2-.3l.6-.8h1.6s-.8,1.1-.8,1.1h0ZM123.9,403.6h-1.6s.8-1.1.8-1.1h1.6s-.8,1.1-.8,1.1h0ZM124.8,404.8h-1.6s.8-1.1.8-1.1h1.6s-.8,1.1-.8,1.1h0ZM125.8,403.6h-1.6s.8-1.1.8-1.1h1.6s-.8,1.1-.8,1.1h0ZM126.8,402.4h-1.6s.8-1.1.8-1.1h1.6s-.8,1.1-.8,1.1h0ZM126.9,404.6c-.1.1-.4.3-.6.2h-1.2s.8-1.1.8-1.1h1.6s-.6.8-.6.8h0ZM127.7,403.6h-1.6s.8-1.1.8-1.1h1.6s-.8,1.1-.8,1.1h0ZM128.7,402.4h-1.6s.8-1.1.8-1.1h1.2c.2,0,.3.1.2.3l-.6.8h0Z"/>
  <path class="st22" d="M149.8,401.2h-4.6c-.2,0-.4,0-.6,0v.2c.2,0,.3,0,.4,0h1.2s-.8,1.1-.8,1.1h-1.6s.2-.2.2-.2c0,0,0,0,0,0h0c0-.1-2.1,2.5-2.1,2.5-.2.3,0,.5.3.5h4.6c.4,0,.9-.1,1.1-.4l2.4-3c.2-.3,0-.5-.3-.5h0ZM143.4,404.8h-1.2c-.2,0-.3-.1-.2-.3l.6-.8h1.6s-.8,1.1-.8,1.1h0ZM144.4,403.6h-1.6s.8-1.1.8-1.1h1.6s-.8,1.1-.8,1.1h0ZM145.3,404.8h-1.6s.8-1.1.8-1.1h1.6s-.8,1.1-.8,1.1h0ZM146.3,403.6h-1.6s.8-1.1.8-1.1h1.6s-.8,1.1-.8,1.1h0ZM147.3,402.4h-1.6s.8-1.1.8-1.1h1.6s-.8,1.1-.8,1.1h0ZM147.4,404.6c-.1.1-.4.3-.6.2h-1.2s.8-1.1.8-1.1h1.6s-.6.8-.6.8h0ZM148.2,403.6h-1.6s.8-1.1.8-1.1h1.6s-.8,1.1-.8,1.1h0ZM149.2,402.4h-1.6s.8-1.1.8-1.1h1.2c.2,0,.3.1.2.3l-.6.8h0Z"/>
  <path class="st22" d="M115,401.2h-4.6c-.2,0-.4,0-.6,0v.2c.2,0,.3,0,.4,0h1.2s-.8,1.1-.8,1.1h-1.6s.2-.2.2-.2c0,0,0,0,0,0h0c0-.1-2.1,2.5-2.1,2.5-.2.3,0,.5.3.5h4.6c.4,0,.9-.1,1.1-.4l2.4-3c.2-.3,0-.5-.3-.5h0ZM108.6,404.8h-1.2c-.2,0-.3-.1-.2-.3l.6-.8h1.6s-.8,1.1-.8,1.1h0ZM109.6,403.6h-1.6s.8-1.1.8-1.1h1.6s-.8,1.1-.8,1.1h0ZM110.5,404.8h-1.6s.8-1.1.8-1.1h1.6s-.8,1.1-.8,1.1h0ZM111.5,403.6h-1.6s.8-1.1.8-1.1h1.6s-.8,1.1-.8,1.1h0ZM112.5,402.4h-1.6s.8-1.1.8-1.1h1.6s-.8,1.1-.8,1.1h0ZM112.6,404.6c-.1.1-.4.3-.6.2h-1.2s.8-1.1.8-1.1h1.6s-.6.8-.6.8h0ZM113.4,403.6h-1.6s.8-1.1.8-1.1h1.6s-.8,1.1-.8,1.1h0ZM114.4,402.4h-1.6s.8-1.1.8-1.1h1.2c.2,0,.3.1.2.3l-.6.8h0Z"/>
  <path class="st22" d="M136.2,401.2h-4.6c-.2,0-.4,0-.6,0v.2c.2,0,.3,0,.4,0h1.2s-.8,1.1-.8,1.1h-1.6s.2-.2.2-.2c0,0,0,0,0,0h0c0-.1-2.1,2.5-2.1,2.5-.2.3,0,.5.3.5h4.6c.4,0,.9-.1,1.1-.4l2.4-3c.2-.3,0-.5-.3-.5h0ZM129.8,404.8h-1.2c-.2,0-.3-.1-.2-.3l.6-.8h1.6s-.8,1.1-.8,1.1h0ZM130.8,403.6h-1.6s.8-1.1.8-1.1h1.6s-.8,1.1-.8,1.1h0ZM131.7,404.8h-1.6s.8-1.1.8-1.1h1.6s-.8,1.1-.8,1.1h0ZM132.7,403.6h-1.6s.8-1.1.8-1.1h1.6s-.8,1.1-.8,1.1h0ZM133.7,402.4h-1.6s.8-1.1.8-1.1h1.6s-.8,1.1-.8,1.1h0ZM133.8,404.6c-.1.1-.4.3-.6.2h-1.2s.8-1.1.8-1.1h1.6s-.6.8-.6.8h0ZM134.6,403.6h-1.6s.8-1.1.8-1.1h1.6s-.8,1.1-.8,1.1h0ZM135.6,402.4h-1.6s.8-1.1.8-1.1h1.2c.2,0,.3.1.2.3l-.6.8h0Z"/>
  <path class="st22" d="M156.7,401.2h-4.6c-.2,0-.4,0-.6,0v.2c.2,0,.3,0,.4,0h1.2s-.8,1.1-.8,1.1h-1.6s.2-.2.2-.2c0,0,0,0,0,0h0c0-.1-2.1,2.5-2.1,2.5-.2.3,0,.5.3.5h4.6c.4,0,.9-.1,1.1-.4l2.4-3c.2-.3,0-.5-.3-.5h0ZM150.3,404.8h-1.2c-.2,0-.3-.1-.2-.3l.6-.8h1.6s-.8,1.1-.8,1.1h0ZM151.3,403.6h-1.6s.8-1.1.8-1.1h1.6s-.8,1.1-.8,1.1h0ZM152.2,404.8h-1.6s.8-1.1.8-1.1h1.6s-.8,1.1-.8,1.1h0ZM153.2,403.6h-1.6s.8-1.1.8-1.1h1.6s-.8,1.1-.8,1.1h0ZM154.2,402.4h-1.6s.8-1.1.8-1.1h1.6s-.8,1.1-.8,1.1h0ZM154.3,404.6c-.1.1-.4.3-.6.2h-1.2s.8-1.1.8-1.1h1.6s-.6.8-.6.8h0ZM155.1,403.6h-1.6s.8-1.1.8-1.1h1.6s-.8,1.1-.8,1.1h0ZM156.1,402.4h-1.6s.8-1.1.8-1.1h1.2c.2,0,.3.1.2.3l-.6.8h0Z"/>
  <path class="st22" d="M122,401.2h-4.6c-.2,0-.4,0-.6,0v.2c.2,0,.3,0,.4,0h1.2s-.8,1.1-.8,1.1h-1.6s.2-.2.2-.2c0,0,0,0,0,0h0c0-.1-2.1,2.5-2.1,2.5-.2.3,0,.5.3.5h4.6c.4,0,.9-.1,1.1-.4l2.4-3c.2-.3,0-.5-.3-.5h0ZM115.6,404.8h-1.2c-.2,0-.3-.1-.2-.3l.6-.8h1.6s-.8,1.1-.8,1.1h0ZM116.6,403.6h-1.6s.8-1.1.8-1.1h1.6s-.8,1.1-.8,1.1h0ZM117.5,404.8h-1.6s.8-1.1.8-1.1h1.6s-.8,1.1-.8,1.1h0ZM118.5,403.6h-1.6s.8-1.1.8-1.1h1.6s-.8,1.1-.8,1.1h0ZM119.5,402.4h-1.6s.8-1.1.8-1.1h1.6s-.8,1.1-.8,1.1h0ZM119.6,404.6c-.1.1-.4.3-.6.2h-1.2s.8-1.1.8-1.1h1.6s-.6.8-.6.8h0ZM120.4,403.6h-1.6s.8-1.1.8-1.1h1.6s-.8,1.1-.8,1.1h0ZM121.4,402.4h-1.6s.8-1.1.8-1.1h1.2c.2,0,.3.1.2.3l-.6.8h0Z"/>
  <path class="st22" d="M143.2,401.2h-4.6c-.2,0-.4,0-.6,0v.2c.2,0,.3,0,.4,0h1.2s-.8,1.1-.8,1.1h-1.6s.2-.2.2-.2c0,0,0,0,0,0h0c0-.1-2.1,2.5-2.1,2.5-.2.3,0,.5.3.5h4.6c.4,0,.9-.1,1.1-.4l2.4-3c.2-.3,0-.5-.3-.5h0ZM136.8,404.8h-1.2c-.2,0-.3-.1-.2-.3l.6-.8h1.6s-.8,1.1-.8,1.1h0ZM137.8,403.6h-1.6s.8-1.1.8-1.1h1.6s-.8,1.1-.8,1.1h0ZM138.7,404.8h-1.6s.8-1.1.8-1.1h1.6s-.8,1.1-.8,1.1h0ZM139.7,403.6h-1.6s.8-1.1.8-1.1h1.6s-.8,1.1-.8,1.1h0ZM140.7,402.4h-1.6s.8-1.1.8-1.1h1.6s-.8,1.1-.8,1.1h0ZM140.8,404.6c-.1.1-.4.3-.6.2h-1.2s.8-1.1.8-1.1h1.6s-.6.8-.6.8h0ZM141.6,403.6h-1.6s.8-1.1.8-1.1h1.6s-.8,1.1-.8,1.1h0ZM142.6,402.4h-1.6s.8-1.1.8-1.1h1.2c.2,0,.3.1.2.3l-.6.8h0Z"/>
  <path class="st22" d="M163.7,401.2h-4.6c-.2,0-.4,0-.6,0v.2c.2,0,.3,0,.4,0h1.2s-.8,1.1-.8,1.1h-1.6s.2-.2.2-.2c0,0,0,0,0,0h0c0-.1-2.1,2.5-2.1,2.5-.2.3,0,.5.3.5h4.6c.4,0,.9-.1,1.1-.4l2.4-3c.2-.3,0-.5-.3-.5h0ZM157.3,404.8h-1.2c-.2,0-.3-.1-.2-.3l.6-.8h1.6s-.8,1.1-.8,1.1h0ZM158.3,403.6h-1.6s.8-1.1.8-1.1h1.6s-.8,1.1-.8,1.1h0ZM159.2,404.8h-1.6s.8-1.1.8-1.1h1.6s-.8,1.1-.8,1.1h0ZM160.2,403.6h-1.6s.8-1.1.8-1.1h1.6s-.8,1.1-.8,1.1h0ZM161.2,402.4h-1.6s.8-1.1.8-1.1h1.6s-.8,1.1-.8,1.1h0ZM161.3,404.6c-.1.1-.4.3-.6.2h-1.2s.8-1.1.8-1.1h1.6s-.6.8-.6.8h0ZM162.1,403.6h-1.6s.8-1.1.8-1.1h1.6s-.8,1.1-.8,1.1h0ZM163.1,402.4h-1.6s.8-1.1.8-1.1h1.2c.2,0,.3.1.2.3l-.6.8h0Z"/>
  <polygon class="st43" points="97.7 405.3 97.7 412.5 100.9 412.5 100.9 405.3 97.7 405.3 97.7 405.3"/>
  <polygon class="st43" points="104.3 405.3 104.3 412.5 107.5 412.5 107.5 405.3 104.3 405.3 104.3 405.3"/>
  <polygon class="st43" points="110.9 405.3 110.9 412.5 114 412.5 114 405.3 110.9 405.3 110.9 405.3"/>
  <polygon class="st43" points="117.5 405.3 117.5 412.5 120.6 412.5 120.6 405.3 117.5 405.3 117.5 405.3"/>
  <polygon class="st43" points="124.1 405.3 124.1 412.5 127.2 412.5 127.2 405.3 124.1 405.3 124.1 405.3"/>
  <polygon class="st43" points="130.6 405.3 130.6 412.5 133.8 412.5 133.8 405.3 130.6 405.3 130.6 405.3"/>
  <polygon class="st43" points="137.2 405.3 137.2 412.5 140.4 412.5 140.4 405.3 137.2 405.3 137.2 405.3"/>
  <polygon class="st43" points="143.8 405.3 143.8 412.5 147 412.5 147 405.3 143.8 405.3 143.8 405.3"/>
  <polygon class="st43" points="150.4 405.3 150.4 412.5 153.6 412.5 153.6 405.3 150.4 405.3 150.4 405.3"/>
  <polygon class="st43" points="157 405.3 157 412.5 160.2 412.5 160.2 405.3 157 405.3 157 405.3"/>
  <text class="st41" transform="translate(126 488.2) rotate(-8.9)"><tspan x="0" y="0">222</tspan></text>
  <text class="st39" transform="translate(291.7 444.7) rotate(-51.9)"><tspan x="0" y="0">2</tspan></text>
  <text class="st38" transform="translate(294 441.7) rotate(-36.9)"><tspan x="0" y="0">2</tspan></text>
  <text class="st40" transform="translate(297 439.6) rotate(-25.7)"><tspan x="0" y="0">2</tspan></text>
  <path class="st21" d="M251.3,309.3c.3,1.7-.3,7-1.5,8.9-1.1,1.9-4.4,5-8.3,5.1-4,.1-7.8.1-12.3-.9-4.4-1.1-10.5-7.5-9.8-11.2.7-3.8,3-3.1,3.8-7.3.8-4.2,1-6.5,4.2-5.8,3.2.7,6.3,3.7,7.9,4.9,1.6,1.2,4.2,2.2,6,2,1.8-.1,9.2.3,10,4.3h0Z"/>
  <path class="st20" d="M126.7,256.1c0,0,.1.2.2.3.6,1.1,1.3,2.2,1.9,3.3.2.3.1.5-.2.6-.3,0-.2.2-.1.4.7,1.1,1.3,2.3,2,3.4,0,.1,0,.3,0,.4,0,0-.2.2-.3.2-.6.1-.6,0-.3.6l2.7,4.6c.3.4.2.6-.3.6-.2,0-.4,0-.5,0-.4,0-.4.1-.2.4l1.4,2.4c.7,1.2,1.4,2.4,2.1,3.6.1.1.1.3,0,.5,0,0-.2.1-.3,0h-6.9v6.1c0,.1,0,.2,0,.3h-2.5c0-.2,0-.3,0-.5v-5.9h-6.8c-.2,0-.3,0-.4-.2,0-.1,0-.3,0-.4,1.2-2,2.3-3.9,3.5-5.9.2-.4.2-.4-.2-.5-.2,0-.3,0-.5,0-.5,0-.6-.2-.3-.6l1.8-3,1-1.7c.2-.3.1-.4-.2-.4-.6,0-.7-.2-.4-.8.6-1.1,1.2-2.2,1.9-3.2.2-.3.2-.3-.2-.4-.3,0-.3-.2-.2-.4.7-1.2,1.4-2.4,2-3.5,0,0,0,0,0-.1h.2Z"/>
  <path class="st20" d="M409.7,263.5c0,0,.1.1.1.2.5.8.9,1.6,1.4,2.5.1.2.1.4-.2.4-.2,0-.2.1-.1.3.5.9,1,1.7,1.5,2.6,0,0,0,.2,0,.3,0,0-.2.1-.3.1-.4,0-.4,0-.2.4l2.1,3.5c.2.3.1.4-.2.5-.1,0-.3,0-.4,0-.3,0-.3,0-.2.3l1.1,1.8c.5.9,1.1,1.8,1.6,2.7,0,0,0,.3,0,.3,0,0-.1,0-.2,0h-5.2v4.6c0,0,0,.2,0,.2h-1.9c0-.1,0-.2,0-.4v-4.5h-5.2c-.1,0-.2,0-.3-.1,0-.1,0-.2,0-.3.9-1.5,1.8-3,2.6-4.5.2-.3.1-.3-.2-.4-.1,0-.3,0-.4,0-.4,0-.4-.2-.2-.5l1.4-2.3.8-1.3c.1-.2.1-.3-.1-.3-.5,0-.5-.2-.3-.6.5-.8.9-1.6,1.4-2.4.1-.2.1-.2-.1-.3-.2,0-.3-.2-.2-.3.5-.9,1-1.8,1.5-2.7,0,0,0,0,0,0h.2Z"/>
  <path class="st20" d="M92.7,329.8c0,0,.1.2.2.3.6,1.1,1.3,2.2,1.9,3.3.2.3.1.5-.2.6-.3,0-.2.2-.1.4.7,1.1,1.3,2.3,2,3.4,0,.1,0,.3,0,.4,0,0-.2.2-.3.2-.6.1-.6,0-.3.6l2.7,4.6c.3.4.2.6-.3.6-.2,0-.4,0-.5,0-.4,0-.4.1-.2.4l1.4,2.4c.7,1.2,1.4,2.4,2.1,3.6.1.1.1.3,0,.5,0,0-.2.1-.3,0h-6.9v6.1c0,.1,0,.2,0,.3h-2.5c0-.2,0-.3,0-.5v-5.9h-6.8c-.2,0-.3,0-.4-.2,0-.1,0-.3,0-.4,1.2-2,2.3-3.9,3.5-5.9.2-.4.2-.4-.2-.5-.2,0-.3,0-.5,0-.5,0-.6-.2-.3-.6l1.8-3,1-1.7c.2-.3.1-.4-.2-.4-.6,0-.7-.2-.4-.8.6-1.1,1.2-2.2,1.9-3.2.2-.3.2-.3-.2-.4-.3,0-.3-.2-.2-.4.7-1.2,1.4-2.4,2-3.5,0,0,0,0,0-.1h.2Z"/>
  <path class="st20" d="M276.2,295.6c0,0,.1.2.2.3.6,1.1,1.3,2.2,1.9,3.3.2.3.1.5-.2.6-.3,0-.2.2-.1.4.7,1.1,1.3,2.3,2,3.4,0,.1,0,.3,0,.4,0,0-.2.2-.3.2-.6.1-.6,0-.3.6l2.7,4.6c.3.4.2.6-.3.6-.2,0-.4,0-.5,0-.4,0-.4.1-.2.4l1.4,2.4c.7,1.2,1.4,2.4,2.1,3.6.1.1.1.3,0,.5,0,0-.2.1-.3,0h-6.9v6.1c0,.1,0,.2,0,.3h-2.5c0-.2,0-.3,0-.5v-5.9h-6.8c-.2,0-.3,0-.4-.2,0-.1,0-.3,0-.4,1.2-2,2.3-3.9,3.5-5.9.2-.4.2-.4-.2-.5-.2,0-.3,0-.5,0-.5,0-.6-.2-.3-.6l1.8-3,1-1.7c.2-.3.1-.4-.2-.4-.6,0-.7-.2-.4-.8.6-1.1,1.2-2.2,1.9-3.2.2-.3.2-.3-.2-.4-.3,0-.3-.2-.2-.4.7-1.2,1.4-2.4,2-3.5,0,0,0,0,0-.1h.2Z"/>
  <path class="st20" d="M427.3,256.1c0,0,.1.2.2.3.6,1.1,1.3,2.2,1.9,3.3.2.3.1.5-.2.6-.3,0-.2.2-.1.4.7,1.1,1.3,2.3,2,3.4,0,.1,0,.3,0,.4,0,0-.2.2-.3.2-.6.1-.6,0-.3.6l2.7,4.6c.3.4.2.6-.3.6-.2,0-.4,0-.5,0-.4,0-.4.1-.2.4l1.4,2.4c.7,1.2,1.4,2.4,2.1,3.6.1.1.1.3,0,.5,0,0-.2.1-.3,0h-6.9v6.1c0,.1,0,.2,0,.3h-2.5c0-.2,0-.3,0-.5v-5.9h-6.8c-.2,0-.3,0-.4-.2,0-.1,0-.3,0-.4,1.2-2,2.3-3.9,3.5-5.9.2-.4.2-.4-.2-.5-.2,0-.3,0-.5,0-.5,0-.6-.2-.3-.6l1.8-3,1-1.7c.2-.3.1-.4-.2-.4-.6,0-.7-.2-.4-.8.6-1.1,1.2-2.2,1.9-3.2.2-.3.2-.3-.2-.4-.3,0-.3-.2-.2-.4.7-1.2,1.4-2.4,2-3.5,0,0,0,0,0-.1h.2Z"/>
  <path class="st20" d="M103.8,265.6s0,0,0,.1c.3.5.6,1.1.9,1.6,0,.2,0,.2-.1.3-.1,0-.1,0,0,.2.3.6.7,1.1,1,1.7,0,0,0,.1,0,.2,0,0-.1,0-.2,0-.3,0-.3,0-.1.3l1.3,2.3c.1.2,0,.3-.2.3,0,0-.2,0-.3,0-.2,0-.2,0-.1.2l.7,1.2c.4.6.7,1.2,1.1,1.8,0,0,0,.2,0,.2,0,0,0,0-.2,0h-3.4v3c0,0,0,.1,0,.2h-1.2c0,0,0-.2,0-.2v-2.9h-3.4c0,0-.1,0-.2,0,0,0,0-.2,0-.2.6-1,1.1-1.9,1.7-2.9.1-.2,0-.2-.1-.2,0,0-.2,0-.3,0-.2,0-.3,0-.2-.3l.9-1.5.5-.9c0-.1,0-.2,0-.2-.3,0-.3-.1-.2-.4.3-.5.6-1.1.9-1.6,0-.1,0-.1,0-.2-.1,0-.2-.1-.1-.2.3-.6.7-1.2,1-1.8,0,0,0,0,0,0h.1Z"/>
  <path class="st20" d="M108,340.9s0,0,0,.1c.3.5.6,1.1.9,1.6,0,.2,0,.2-.1.3-.1,0-.1,0,0,.2.3.6.7,1.1,1,1.7,0,0,0,.1,0,.2,0,0-.1,0-.2,0-.3,0-.3,0-.1.3l1.3,2.3c.1.2,0,.3-.2.3,0,0-.2,0-.3,0-.2,0-.2,0-.1.2l.7,1.2c.4.6.7,1.2,1.1,1.8,0,0,0,.2,0,.2,0,0,0,0-.2,0h-3.4v3c0,0,0,.1,0,.2h-1.2c0,0,0-.2,0-.2v-2.9h-3.4c0,0-.1,0-.2,0,0,0,0-.2,0-.2.6-1,1.1-1.9,1.7-2.9.1-.2,0-.2-.1-.2,0,0-.2,0-.3,0-.2,0-.3,0-.2-.3l.9-1.5.5-.9c0-.1,0-.2,0-.2-.3,0-.3-.1-.2-.4.3-.5.6-1.1.9-1.6,0-.1,0-.1,0-.2-.1,0-.2-.1-.1-.2.3-.6.7-1.2,1-1.8,0,0,0,0,0,0h.1Z"/>
  <path class="st20" d="M291.5,306.7s0,0,0,.1c.3.5.6,1.1.9,1.6,0,.2,0,.2-.1.3-.1,0-.1,0,0,.2.3.6.7,1.1,1,1.7,0,0,0,.1,0,.2,0,0-.1,0-.2,0-.3,0-.3,0-.1.3l1.3,2.3c.1.2,0,.3-.2.3,0,0-.2,0-.3,0-.2,0-.2,0-.1.2l.7,1.2c.4.6.7,1.2,1.1,1.8,0,0,0,.2,0,.2,0,0,0,0-.2,0h-3.4v3c0,0,0,.1,0,.2h-1.2c0,0,0-.2,0-.2v-2.9h-3.4c0,0-.1,0-.2,0,0,0,0-.2,0-.2.6-1,1.1-1.9,1.7-2.9.1-.2,0-.2-.1-.2,0,0-.2,0-.3,0-.2,0-.3,0-.2-.3l.9-1.5.5-.9c0-.1,0-.2,0-.2-.3,0-.3-.1-.2-.4.3-.5.6-1.1.9-1.6,0-.1,0-.1,0-.2-.1,0-.2-.1-.1-.2.3-.6.7-1.2,1-1.8,0,0,0,0,0,0h.1Z"/>
  <path class="st20" d="M442.6,267.2s0,0,0,.1c.3.5.6,1.1.9,1.6,0,.2,0,.2-.1.3-.1,0-.1,0,0,.2.3.6.7,1.1,1,1.7,0,0,0,.1,0,.2,0,0-.1,0-.2,0-.3,0-.3,0-.1.3l1.3,2.3c.1.2,0,.3-.2.3,0,0-.2,0-.3,0-.2,0-.2,0-.1.2l.7,1.2c.4.6.7,1.2,1.1,1.8,0,0,0,.2,0,.2,0,0,0,0-.2,0h-3.4v3c0,0,0,.1,0,.2h-1.2c0,0,0-.2,0-.2v-2.9h-3.4c0,0-.1,0-.2,0,0,0,0-.2,0-.2.6-1,1.1-1.9,1.7-2.9.1-.2,0-.2-.1-.2,0,0-.2,0-.3,0-.2,0-.3,0-.2-.3l.9-1.5.5-.9c0-.1,0-.2,0-.2-.3,0-.3-.1-.2-.4.3-.5.6-1.1.9-1.6,0-.1,0-.1,0-.2-.1,0-.2-.1-.1-.2.3-.6.7-1.2,1-1.8,0,0,0,0,0,0h.1Z"/>
  <path class="st20" d="M115.8,262.8c0,0,.1.2.2.3.6,1,1.1,2,1.7,3,.2.3.1.4-.2.5-.2,0-.2.2-.1.3.6,1,1.2,2.1,1.8,3.1,0,.1,0,.3,0,.4,0,0-.2.1-.3.1-.5,0-.5,0-.3.5l2.5,4.2c.2.4.2.5-.3.6-.2,0-.3,0-.5,0-.3,0-.4.1-.2.4l1.3,2.2c.6,1.1,1.3,2.2,1.9,3.3.1.1.1.3,0,.4,0,0-.2,0-.3,0h-6.3v5.5c0,0,0,.2,0,.3h-2.3c0-.1,0-.3,0-.4v-5.4h-6.2c-.1,0-.3,0-.4-.1,0-.1,0-.3,0-.4,1.1-1.8,2.1-3.6,3.2-5.3.2-.3.2-.4-.2-.4-.2,0-.3,0-.5,0-.4,0-.5-.2-.3-.6l1.6-2.8.9-1.6c.2-.3.1-.3-.2-.4-.6,0-.6-.2-.3-.7.6-1,1.1-2,1.7-2.9.1-.3.1-.3-.1-.4-.2,0-.3-.2-.2-.4.6-1.1,1.2-2.2,1.9-3.2,0,0,0,0,0,0h.2Z"/>
  <path class="st20" d="M81.8,336.6c0,0,.1.2.2.3.6,1,1.1,2,1.7,3,.2.3.1.4-.2.5-.2,0-.2.2-.1.3.6,1,1.2,2.1,1.8,3.1,0,.1,0,.3,0,.4,0,0-.2.1-.3.1-.5,0-.5,0-.3.5l2.5,4.2c.2.4.2.5-.3.6-.2,0-.3,0-.5,0-.3,0-.4.1-.2.4l1.3,2.2c.6,1.1,1.3,2.2,1.9,3.3.1.1.1.3,0,.4,0,0-.2,0-.3,0h-6.3v5.5c0,0,0,.2,0,.3h-2.3c0-.1,0-.3,0-.4v-5.4h-6.2c-.1,0-.3,0-.4-.1,0-.1,0-.3,0-.4,1.1-1.8,2.1-3.6,3.2-5.3.2-.3.2-.4-.2-.4-.2,0-.3,0-.5,0-.4,0-.5-.2-.3-.6l1.6-2.8.9-1.6c.2-.3.1-.3-.2-.4-.6,0-.6-.2-.3-.7.6-1,1.1-2,1.7-2.9.1-.3.1-.3-.1-.4-.2,0-.3-.2-.2-.4.6-1.1,1.2-2.2,1.9-3.2,0,0,0,0,0,0h.2Z"/>
  <path class="st23" d="M315.9,171.8s-4.3,4.3-4.3,9.2-2.8,5-6.4,6.4c-3.5,1.4-7.1,4.3-3.5,5.7,3.5,1.4,5.7,0,9.9,0s6.4-.7,8.5-2.8c2.1-2.1,0-7.1,0-11.3s-4.3-7.1-4.3-7.1h0Z"/>
  <path class="st21" d="M186.9,231.3s-4.3,1.4-3.5,4.3c.7,2.8,4.3,5,7.1,5.7,2.8.7,4.3-1.4,5,4.3.7,5.7,0,9.4,0,12.8s5.4,11.3,5.4,6.7,8.4-3.9,8.4-7.1,7.8-5.6,7.8-9-2.8-8.2-5.3-4.1c-2.5,4.1-6.7,7.5-6.7,4.1v-14h-7.5c-5,0-8.5-3.5-8.5-3.5h-2.1Z"/>
  <path class="st21" d="M84.1,377.3s5.4,13.5-2.4,19.8c-7.8,6.4-7.8,8.5-7.8,14.9s6,2.8,6,6.4,1.8,2.8,1.8,2.8c0,0,.6-2.1,4.2-9.9,3.6-7.8,6.7-9.2,6.7-12s3.2-2.9,0-7.8c-3.2-5-8.5-14.2-8.5-14.2h0Z"/>
  <path class="st21" d="M177.7,261.8s-1.4,1.9-1.4,8.7,1.4,4.1,1.4,8.4,5.6,4.2,5.6,4.2c0,0-2.9-.9,0-5.8s4.3-6.8,4.3-6.8l-9.9-8.7h0Z"/>
  <path class="st21" d="M179.1,491.2s-12.8,5.2-17,6.6c-4.3,1.4-5.7,4.3-5.7,4.3h25.5s2.8,2.8,5.7,0c2.8-2.8-5.7-4.8-5.7-4.8l-2.8-6.1h0Z"/>
  <path class="st21" d="M211.7,536.1h7.7c5.4,0,5.4.7,5.4,2.8s9.6,5.7,10.6,2.8c1.1-2.8,6.8-2.3,6.8-2.3,0,0,5.7,5.1,0,7.3-5.7,2.1-9.7,0-17.4,0s-15.5-1.9-15.5-4.8,2.5-5.8,2.5-5.8h0Z"/>
  <path class="st21" d="M149.7,560.1s3.2,6.4,0,6.4-3.9,0-6-3.2c-2.1-3.2,0-3.2,0-3.2,0,0,.5-2.8,3.2-4.3,2.8-1.4,9.5,0,9.5,0v5l-6.7-.7h0Z"/>
  <path class="st21" d="M81.7,509.8l2.3,5s5.5,2.5,5.5,0v-5l-3.9-3.5-3.9,3.5h0Z"/>
  <path class="st15" d="M133.1,224.8s.4.8-1.8,2.4c-2.1,1.6-3.9,1.4-3.2,4.9.7,3.5,3.5,10.8,4.9,12.2,1.5,1.4,13.6,12.6,13.6,12.6,0,0,29.1,16.4,30.5,17.5,1.4,1,5.6,5.6,8.1,6.6,2.5,1.1,9.5,11.2,13,12.2s16.8,9.1,20,12.2,2.8,3.8,2.5,7c-.4,3.1,0,11.5-3.2,13.6-3.2,2.1-11.2,7-11.2,7"/>
  <path class="st11" d="M243.4,583.4s-2.3-1.5-1.3-2.9c1.3-1.5,2.5-.9,3.2-.5,0,0-.4-2.8,2.7-2.8s2.3,2.9,2.3,2.9c0,0,2.9-.4,3.2,1.3.3,2.4-1.6,2.7-1.6,2.7,0,0,.8,2-1.2,3-2,1-3.3,0-3.3,0,0,0-2.9,1.3-4.4-.7-.8-1.1.5-3,.5-3h0Z"/>
  <path class="st10" d="M251.1,579.6s-2.7-1.8-1.6-3.5c1.6-1.8,3-1,3.7-.6,0,0-.5-3.4,3.2-3.4s2.7,3.5,2.7,3.5c0,0,3.4-.5,3.8,1.6.4,2.9-1.9,3.2-1.9,3.2,0,0,1,2.3-1.4,3.6-2.3,1.2-3.9,0-3.9,0,0,0-3.4,1.5-5.2-.9-1-1.3.6-3.6.6-3.6h0Z"/>
  <line class="st16" x1="247.4" y1="588.2" x2="247.4" y2="602.5"/>
  <line class="st14" x1="255.8" y1="585.3" x2="255.8" y2="602.3"/>
  <path class="st13" d="M228.2,592.2s-1.4-.9-.8-1.8c.8-.9,1.5-.5,1.9-.3,0,0-.3-1.7,1.6-1.7s1.4,1.8,1.4,1.8c0,0,1.7-.2,1.9.8.2,1.4-1,1.6-1,1.6,0,0,.5,1.2-.7,1.8-1.2.6-2,0-2,0,0,0-1.7.8-2.7-.4-.5-.6.3-1.8.3-1.8h0Z"/>
  <path class="st12" d="M232.8,589.9s-1.6-1.1-.9-2.1c.9-1.1,1.8-.6,2.2-.4,0,0-.3-2,1.9-2s1.6,2.1,1.6,2.1c0,0,2-.3,2.3.9.2,1.7-1.2,1.9-1.2,1.9,0,0,.6,1.4-.8,2.1-1.4.7-2.3,0-2.3,0,0,0-2,.9-3.1-.5-.6-.8.3-2.1.3-2.1h0Z"/>
  <line class="st1" x1="230.6" y1="595" x2="230.6" y2="603.6"/>
  <line class="st9" x1="235.7" y1="593.3" x2="235.7" y2="603.5"/>
  <path class="st8" d="M38.3,204.3s3.2-6.8,9.5-3.4c6.3,3.4,9.1,5.6,15.3,3.4,6.2-2.2,7.4-5.5,7.4-5.5M55.9,185.1s2.6-6.8,7.7-3.4c5.1,3.4,7.4,5.6,12.4,3.4,5.1-2.2,6-5.5,6-5.5"/>
  <path class="st4" d="M99.8,176.7s1.8-4.8,5.4-2.4c3.6,2.4,5.2,3.9,8.7,2.4,3.5-1.5,4.2-3.8,4.2-3.8"/>
  <path class="st8" d="M92,195s2.6-6.8,7.7-3.4c5.1,3.4,7.4,5.6,12.4,3.4s6-5.5,6-5.5"/>
  <path class="st17" d="M155.2,158.7c-.6,0-1.1.5-1.1,1.1v4.8h-.7v-4.7c0-.6-.5-1.1-1.1-1.1h-5.2c-.5,0-.9.3-1.1.8l-2,7.3h-2.8c-.5,0-.9.3-1.1.8l-1.1,4.3h-8.5c-.4,0-.8.3-1,.7-.2.4,0,.9.2,1.2l9.8,10.3c.2.2.5.3.8.4h24.5c.4,0,.8-.2,1-.6l4.9-10.3c.2-.3.1-.7,0-1.1-.2-.3-.6-.5-.9-.5h-5l-1.8-6.6c-.1-.5-.6-.8-1.1-.8h-1v-4.8c0-.6-.5-1.1-1.1-1.1h-4.4ZM156.3,160.9h2.2v3.7h-2.2v-3.7h0ZM147.8,161h3.3v3.6h-1.3c-.4,0-.8.2-1,.6l-1,1.7h-1.6l1.6-5.9h0ZM150.5,166.8h10.4l1.4,5.2h-21l.8-2.9h6.5c.4,0,.8-.2,1-.6l1-1.7h0ZM133,174.2h34.8l-3.8,8.1h-23.3l-7.7-8.1h0ZM141.1,175.7c-.6,0-1.1.5-1.1,1.1s.5,1.1,1.1,1.1h3.7c.6,0,1.1-.5,1.1-1.1,0-.6-.5-1.1-1.1-1.1h-3.7ZM148.5,175.7c-.6,0-1.1.5-1.1,1.1s.5,1.1,1.1,1.1h3.7c.6,0,1.1-.5,1.1-1.1s-.5-1.1-1.1-1.1h-3.7ZM155.9,175.7c-.3,0-.6.1-.8.3-.2.2-.3.5-.3.8s.1.6.3.8c.2.2.5.3.8.3h3.7c.6,0,1.1-.5,1.1-1.1s-.5-1.1-1.1-1.1h-3.7Z"/>
  <path class="st17" d="M53.9,215c-.4,0-.7.3-.7.7v3.2h-.5v-3.1c0-.4-.3-.7-.7-.7h-3.5c-.3,0-.6.2-.7.5l-1.3,4.8h-1.9c-.3,0-.6.2-.7.5l-.8,2.8h-5.6c-.3,0-.6.2-.7.4-.1.3,0,.6.1.8l6.5,6.8c.1.1.3.2.5.2h16.2c.3,0,.5-.2.7-.4l3.2-6.8c.1-.2,0-.5,0-.7-.1-.2-.4-.3-.6-.3h-3.3l-1.2-4.4c0-.3-.4-.5-.7-.5h-.7v-3.2c0-.4-.3-.7-.7-.7h-2.9ZM54.7,216.5h1.5v2.5h-1.5v-2.5h0ZM49.1,216.6h2.2v2.4h-.8c-.3,0-.5.1-.6.4l-.7,1.2h-1.1l1-3.9h0ZM50.8,220.4h6.9l.9,3.4h-13.9l.5-1.9h4.3c.3,0,.5-.1.6-.4l.7-1.2h0ZM39.2,225.3h23.1l-2.5,5.3h-15.4l-5.1-5.3h0ZM44.6,226.3c-.4,0-.7.3-.7.7s.3.7.7.7h2.5c.4,0,.7-.3.7-.7,0-.4-.3-.7-.7-.7h-2.5ZM49.5,226.3c-.4,0-.7.3-.7.7s.3.7.7.7h2.4c.4,0,.7-.3.7-.7s-.3-.7-.7-.7h-2.4ZM54.4,226.3c-.2,0-.4,0-.5.2-.1.1-.2.3-.2.5s0,.4.2.5c.1.1.3.2.5.2h2.4c.4,0,.7-.3.7-.7s-.3-.7-.7-.7h-2.4Z"/>
  <path class="st8" d="M365,575.4s3.2-6.8,9.5-3.4c6.3,3.4,9.1,5.6,15.3,3.4,6.2-2.2,7.4-5.5,7.4-5.5M382.6,556.2s2.6-6.8,7.7-3.4c5.1,3.4,7.4,5.6,12.4,3.4,5.1-2.2,6-5.5,6-5.5"/>
  <path class="st4" d="M426.5,547.8s1.8-4.8,5.4-2.4c3.6,2.4,5.2,3.9,8.7,2.4,3.5-1.5,4.2-3.8,4.2-3.8"/>
  <path class="st8" d="M418.7,566.1s2.6-6.8,7.7-3.4c5.1,3.4,7.4,5.6,12.4,3.4,5.1-2.2,6-5.5,6-5.5"/>
  <path class="st17" d="M443.5,506.3c-.6,0-1.1.5-1.1,1.1v4.8h-.7v-4.7c0-.6-.5-1.1-1.1-1.1h-5.2c-.5,0-.9.3-1.1.8l-2,7.3h-2.8c-.5,0-.9.3-1.1.8l-1.1,4.3h-8.5c-.4,0-.8.3-1,.7-.2.4,0,.9.2,1.2l9.8,10.3c.2.2.5.3.8.4h24.5c.4,0,.8-.2,1-.6l4.9-10.3c.2-.3.1-.7,0-1.1-.2-.3-.6-.5-.9-.5h-5l-1.8-6.6c-.1-.5-.6-.8-1.1-.8h-1v-4.8c0-.6-.5-1.1-1.1-1.1h-4.4ZM444.6,508.5h2.2v3.7h-2.2v-3.7h0ZM436.1,508.6h3.3v3.6h-1.3c-.4,0-.8.2-1,.6l-1,1.7h-1.6l1.6-5.9h0ZM438.8,514.4h10.4l1.4,5.2h-21l.8-2.9h6.5c.4,0,.8-.2,1-.6l1-1.7h0ZM421.3,521.8h34.8l-3.8,8.1h-23.3l-7.7-8.1h0ZM429.4,523.3c-.6,0-1.1.5-1.1,1.1s.5,1.1,1.1,1.1h3.7c.6,0,1.1-.5,1.1-1.1,0-.6-.5-1.1-1.1-1.1h-3.7ZM436.8,523.3c-.6,0-1.1.5-1.1,1.1s.5,1.1,1.1,1.1h3.7c.6,0,1.1-.5,1.1-1.1s-.5-1.1-1.1-1.1h-3.7ZM444.2,523.3c-.3,0-.6.1-.8.3-.2.2-.3.5-.3.8s.1.6.3.8c.2.2.5.3.8.3h3.7c.6,0,1.1-.5,1.1-1.1s-.5-1.1-1.1-1.1h-3.7Z"/>
  <path class="st17" d="M380.6,586.1c-.4,0-.7.3-.7.7v3.2h-.5v-3.1c0-.4-.3-.7-.7-.7h-3.5c-.3,0-.6.2-.7.5l-1.3,4.8h-1.9c-.3,0-.6.2-.7.5l-.8,2.8h-5.6c-.3,0-.6.2-.7.4-.1.3,0,.6.1.8l6.5,6.8c.1.1.3.2.5.2h16.2c.3,0,.5-.2.7-.4l3.2-6.8c.1-.2,0-.5,0-.7-.1-.2-.4-.3-.6-.3h-3.3l-1.2-4.4c0-.3-.4-.5-.7-.5h-.7v-3.2c0-.4-.3-.7-.7-.7h-2.9ZM381.4,587.6h1.5v2.5h-1.5v-2.5h0ZM375.8,587.7h2.2v2.4h-.8c-.3,0-.5.1-.6.4l-.7,1.2h-1.1l1-3.9h0ZM377.5,591.5h6.9l.9,3.4h-13.9l.5-1.9h4.3c.3,0,.5-.1.6-.4l.7-1.2h0ZM366,596.4h23.1l-2.5,5.3h-15.4l-5.1-5.3h0ZM371.3,597.4c-.4,0-.7.3-.7.7s.3.7.7.7h2.5c.4,0,.7-.3.7-.7,0-.4-.3-.7-.7-.7h-2.5ZM376.2,597.4c-.4,0-.7.3-.7.7s.3.7.7.7h2.4c.4,0,.7-.3.7-.7s-.3-.7-.7-.7h-2.4ZM381.1,597.4c-.2,0-.4,0-.5.2-.1.1-.2.3-.2.5s0,.4.2.5c.1.1.3.2.5.2h2.4c.4,0,.7-.3.7-.7s-.3-.7-.7-.7h-2.4Z"/>
  <path class="st22" d="M136.8,410.1c.9,0,1.6.7,1.6,1.6s-.6,1.6-1.6,1.6-1.6-.7-1.6-1.6.6-1.6,1.6-1.6M136.8,409.2c-1.4,0-2.5,1.1-2.5,2.4s1.1,2.4,2.5,2.4,2.5-1.1,2.5-2.4-1.1-2.4-2.5-2.4"/>
  <path class="st22" d="M131.5,410.1c.9,0,1.6.7,1.6,1.6s-.6,1.6-1.6,1.6-1.6-.7-1.6-1.6.6-1.6,1.6-1.6M131.5,409.2c-1.4,0-2.5,1.1-2.5,2.4s1.1,2.4,2.5,2.4,2.5-1.1,2.5-2.4-1.1-2.4-2.5-2.4"/>
  <path class="st22" d="M118.3,419.7c1.3-.8,2.2-2.2,2.2-3.9,0-2.5-2-4.5-4.5-4.5s-3.1.9-3.9,2.2c.5-2.4,2.6-4.1,5.1-4.1s5.2,2.3,5.2,5.2-1.8,4.6-4.1,5.1M112.4,415.8c0-1.9,1.6-3.5,3.5-3.5s3.5,1.6,3.5,3.5-1.6,3.5-3.5,3.5-3.5-1.6-3.5-3.5M117.2,408.3c-3.5,0-6.3,2.8-6.3,6.3s2.8,6.3,6.3,6.3,6.3-2.8,6.3-6.3-2.8-6.3-6.3-6.3"/>
  <path class="st22" d="M126.9,411.3h-.5v-1.2h.5c.4,0,.7.2.7.6s-.3.6-.7.6M127.2,413.3h-.9v-1.3h.9c.5,0,.7.2.7.7s-.3.6-.7.6M125.5,414h1.9c.9,0,1.4-.5,1.4-1.3s-1-1.2-1-1.2c0,0,.6-.1.6-1s-.6-1.3-1.4-1.3h-1.5v4.7Z"/>
  <polygon class="st22" points="128.5 415.9 128.5 415.1 125.5 415.1 125.5 419.8 128.5 419.8 128.5 419 126.4 419 126.4 417.8 128.2 417.8 128.2 417 126.4 417 126.4 415.9 128.5 415.9"/>
  <polygon class="st22" points="136.7 415.9 136.7 415.1 133.7 415.1 133.7 419.8 136.7 419.8 136.7 419 134.6 419 134.6 417.8 136.4 417.8 136.4 417 134.6 417 134.6 415.9 136.7 415.9"/>
  <rect class="st22" x="146.2" y="415.1" width=".9" height="4.7"/>
  <polygon class="st22" points="133 419.8 133 415.1 132.1 415.1 132.1 418.2 130.1 415.1 129 415.1 129.2 415.3 129.2 419.8 130.1 419.8 130.1 416.7 132.1 419.8 133 419.8"/>
  <path class="st22" d="M138.2,415.8h.8c.4,0,.7.2.7.6s-.3.6-.7.6h-.8v-1.2ZM139.6,417.6c.3,0,1-.3,1-1.2s-.6-1.3-1.4-1.3h-1.8v4.7h.9v-2h.1c.6,0,1.4.6,1.4,2h.9c0-1.3-.7-2-1-2.2"/>
  <path class="st22" d="M143.4,417.3v.8h1.5c-.2.6-.8,1-1.5,1s-1.6-.7-1.6-1.6.6-1.6,1.6-1.6.9.2,1.2.5l.5-.7c-.4-.4-1-.7-1.7-.7-1.4,0-2.5,1.1-2.5,2.4s1.1,2.4,2.5,2.4,2.4-.9,2.4-2.6h-2.4Z"/>
  <text class="st36" transform="translate(127.3 455.4) rotate(-37.5)"><tspan x="0" y="0">V</tspan></text>
  <text class="st24" transform="translate(129.3 453.8) rotate(-37.1)"><tspan x="0" y="0">Ä</tspan></text>
  <text class="st25" transform="translate(131.5 452.1) rotate(-36.5)"><tspan x="0" y="0">R</tspan></text>
  <text class="st27" transform="translate(133.8 450.5) rotate(-35.5)"><tspan x="0" y="0">M</tspan></text>
  <text class="st27" transform="translate(136.6 448.4) rotate(-33.6)"><tspan x="0" y="0">D</tspan></text>
  <text class="st32" transform="translate(139.2 446.7) rotate(-29.5)"><tspan x="0" y="0">Ö</tspan></text>
  <text class="st30" transform="translate(142.3 445) rotate(-28)"><tspan x="0" y="0">V</tspan></text>
  <text class="st33" transform="translate(144.6 443.8) rotate(-27.3)"><tspan x="0" y="0">Ä</tspan></text>
  <text class="st34" transform="translate(147.1 442.5) rotate(-26.7)"><tspan x="0" y="0">G</tspan></text>
  <text class="st29" transform="translate(150.1 440.9) rotate(-26.3)"><tspan x="0" y="0">E</tspan></text>
  <text class="st26" transform="translate(152.5 439.7) rotate(-26.1)"><tspan x="0" y="0">N</tspan></text>
  <text class="st37" transform="translate(197.8 418.5) rotate(-28)"><tspan x="0" y="0">V</tspan></text>
  <text class="st24" transform="translate(200.1 417.3) rotate(-27.6)"><tspan x="0" y="0">Ä</tspan></text>
  <text class="st34" transform="translate(202.6 416) rotate(-27)"><tspan x="0" y="0">R</tspan></text>
  <text class="st35" transform="translate(205 414.7) rotate(-26)"><tspan x="0" y="0">M</tspan></text>
  <text class="st27" transform="translate(208.1 413.2) rotate(-24.1)"><tspan x="0" y="0">D</tspan></text>
  <text class="st30" transform="translate(211 411.9) rotate(-20)"><tspan x="0" y="0">Ö</tspan></text>
  <text class="st31" transform="translate(214.3 410.7) rotate(-18.5)"><tspan x="0" y="0">V</tspan></text>
  <text class="st33" transform="translate(216.8 409.9) rotate(-17.8)"><tspan x="0" y="0">Ä</tspan></text>
  <text class="st34" transform="translate(219.5 409) rotate(-17.2)"><tspan x="0" y="0">G</tspan></text>
  <text class="st28" transform="translate(222.7 408) rotate(-16.8)"><tspan x="0" y="0">E</tspan></text>
  <text class="st26" transform="translate(225.3 407.2) rotate(-16.6)"><tspan x="0" y="0">N</tspan></text>
  <path class="st19" d="M387.1,229h-.3c.1-.5,0-.9-.4-1-.3-.1-.7,0-.9.3l-5.6-2.7c0,0-.2,0-.2,0h0s-1,.6-1,.6c0,0,0,0,0,0-.1.1,0,.4.2.5.1.1.4.1.5,0l.8-.8,5.3,2.5-.8,1.8-2,.8s0,0,0,0l-2.5.3c-.2,0-.3.2-.2.3l.6,5-2.5,5.2c-.2.4,0,.8.3,1,.1,0,.2,0,.3,0,.3,0,.5-.2.7-.4l2.6-5.4c0,0,0-.1,0-.2h.7c0,0,0,5.2,0,5.2,0,.4.3.7.7.7s.8-.3.7-.8v-6c0,0-.6-3.6-.6-3.6v-.4c0,0,1.8-.8,1.8-.8.2,0,.3-.2.4-.4l.9-2.1h.3c0,.1,0-.1,0-.1h0Z"/>
  <path class="st19" d="M381.5,230.9c.8,0,1.3-.8,1.2-1.6,0-.8-.8-1.3-1.6-1.2-.8,0-1.3.8-1.2,1.6,0,.8.8,1.3,1.6,1.2h0Z"/>
  <path class="st19" d="M375.8,240.4c-.4,0-.7.3-.7.7s.3.7.7.7.7-.3.7-.7-.3-.7-.7-.7h0Z"/>
  <path class="st19" d="M376.2,241.9s0,0,0,0c0,0,0,0,0,0,0,0,0,0,0,0h0c0,0-.1,0-.2,0,0,0,0,0,0,0,0,0,0,0,0,0,0,0-.1,0-.1,0,0,0,0,0,0,0,0,0,0,0,0,0,0,0,0,0,0,.1,0,0,.1.1.2.2,0,0,0,0,.1,0,0,0,0,0,0,0v.5c.1,0,.2-.5.2-.5h0s0,0,.1,0c0,0,.1,0,.2-.1,0,0,0-.1,0-.1,0,0,0,0,0,0,0,0,0,0,0,0,0,0,0,0-.1,0h0Z"/>
  <polygon class="st42" points="154.1 388.1 154.1 397.8 175.5 397.8 175.5 388.1 154.1 388.1 154.1 388.1"/>
  <polygon class="st43" points="175.5 385.7 175.5 397.8 176.1 391.5 176.1 385.7 175.5 385.7 175.5 385.7"/>
  <polygon class="st0" points="155.5 385.7 154.2 388.1 175.5 388.1 176.1 385.7 155.5 385.7 155.5 385.7"/>
  <path class="st22" d="M164.8,391.1s0,0,0,0c0,0,0,0,0,.2,0,.3-.2,1.1-.2,1.1h1.1c0,0,0,0,.1,0s0,0,0,.1l-1.5,1.6s0,0,0,0,0,0,0,0c0,0,0,0,0-.2,0-.3.2-1.1.2-1.1h-1.1c0,0,0,0-.1,0,0,0,0,0,0-.1l1.5-1.6s0,0,0,0M164.8,390.7h0c-.1,0-.3,0-.4.2l-1.5,1.6h0s0,0,0,0c-.1.1-.2.3,0,.5,0,.2.3.3.4.3h.7c0,.2,0,.5,0,.7,0,.2,0,.4.2.5,0,0,.2,0,.2,0,.1,0,.3,0,.4-.2l1.5-1.6h0s0,0,0,0c.1-.1.2-.3,0-.5,0-.2-.3-.3-.4-.3h-.7c0-.2,0-.5,0-.7,0-.2,0-.4-.2-.5,0,0-.2,0-.2,0h0Z"/>
  <path class="st22" d="M170.6,391.5h-.2v-1c0-.4-.3-.8-.8-.8h-10.5c-.4,0-.8.3-.8.8v4.5c0,.4.3.8.8.8h10.5c.4,0,.8-.3.8-.8v-1h.2c.3,0,.5-.2.5-.5v-1.4c0-.3-.2-.5-.5-.5h0ZM170.1,394.9c0,.2-.2.4-.4.4h-10.5c-.2,0-.4-.2-.4-.4v-4.5c0-.2.2-.4.4-.4h10.5c.2,0,.4.2.4.4v4.5h0ZM170.8,393.4c0,0,0,.2-.2.2h-.2v-1.8h.2c0,0,.2,0,.2.2v1.4h0Z"/>
</svg>