<svg width="278" height="278" viewBox="0 0 278 278" fill="none" xmlns="http://www.w3.org/2000/svg">
<path d="M18.9482 5.09443C17.8161 5.7493 16.8031 6.58276 15.7902 7.53529C12.5725 10.7501 10.9042 15.0365 10.9042 19.2633C10.9042 23.4902 12.513 27.717 15.7902 30.9913C22.285 37.4804 32.772 37.4804 39.2669 30.9913C40.2202 30.0388 41.0544 28.9672 41.7694 27.8361C40.9948 31.408 39.2072 34.6824 36.5855 37.3614C29.1373 44.803 16.9223 44.803 9.47411 37.3614C5.8394 33.7298 3.87306 28.9077 3.87306 23.7878C3.87306 18.668 5.8394 13.8458 9.47411 10.2143C12.1555 7.53529 15.4922 5.80884 18.9482 5.03491M36.0492 9.79755C36.0492 9.79755 36.3472 10.0952 36.5259 10.2738C36.7047 10.4524 36.8239 10.5715 36.943 10.7501C39.0881 13.0719 40.2202 16.108 40.2202 19.3228C40.2202 22.7162 38.9093 25.931 36.4663 28.3123C34.0233 30.6937 30.8653 32.0629 27.4689 32.0629C24.0725 32.0629 20.855 30.7532 18.4715 28.3123C16.0881 25.931 14.7176 22.7162 14.7176 19.3228C14.7176 15.9294 16.0285 12.7147 18.4715 10.3333C23.298 5.51117 31.0441 5.39209 36.0492 9.85707M6.73319 7.53529C2.26427 12.0003 -2.52551e-06 17.894 -2.01026e-06 23.7878C-1.49501e-06 29.6816 2.26428 35.5754 6.73319 40.0404C15.7306 49.0298 30.2695 49.0298 39.2669 40.0403C43.7358 35.5754 46 29.6816 46 23.7878C46 17.894 43.7358 12.0003 39.2669 7.53529C39.0881 7.35669 38.8498 7.11857 38.671 6.93996C29.6736 -1.45419 15.5518 -1.2756 6.73319 7.53529Z" fill="#FAC9FA"/>
<path d="M96.5363 5.09444C95.4288 5.7493 94.4378 6.58276 93.4469 7.53529C90.2992 10.7501 88.6671 15.0365 88.6671 19.2633C88.6671 23.4902 90.2409 27.717 93.4469 30.9913C99.8005 37.4804 110.06 37.4804 116.413 30.9913C117.346 30.0388 118.162 28.9672 118.861 27.8361C118.104 31.408 116.355 34.6824 113.79 37.3614C106.504 44.803 94.5544 44.803 87.2682 37.3614C83.7125 33.7298 81.7889 28.9077 81.7889 23.7878C81.7889 18.668 83.7125 13.8458 87.2682 10.2143C89.8912 7.53529 93.1554 5.80884 96.5363 5.03491M113.324 9.79755C113.324 9.79755 113.615 10.0952 113.79 10.2738C113.965 10.4524 114.082 10.5715 114.198 10.7501C116.297 13.0719 117.404 16.108 117.404 19.3228C117.404 22.7162 116.122 25.931 113.732 28.3123C111.4 30.6937 108.253 32.0629 104.93 32.0629C101.608 32.0629 98.4598 30.7532 96.1282 28.3123C93.7966 25.931 92.456 22.7162 92.456 19.3228C92.456 15.9294 93.7383 12.7147 96.1282 10.3333C100.85 5.51117 108.427 5.39209 113.324 9.85707M84.5868 7.53529C80.2151 12.0003 78 17.894 78 23.7878C78 29.6816 80.2151 35.5754 84.5868 40.0404C93.3886 49.0298 107.611 49.0298 116.413 40.0403C120.785 35.5754 123 29.6816 123 23.7878C123 17.894 120.785 12.0003 116.413 7.53529C116.238 7.35669 116.005 7.11857 115.83 6.93996C107.029 -1.45419 93.2138 -1.2756 84.5868 7.53529Z" fill="#FAC9FA"/>
<path d="M268.732 242.003C271.355 244.625 273.045 247.83 273.803 251.326C273.162 250.219 272.346 249.17 271.355 248.238C265.001 241.887 254.742 241.887 248.389 248.238C245.241 251.384 243.609 255.579 243.609 259.716C243.609 263.853 245.183 267.99 248.389 271.195C249.321 272.127 250.37 272.943 251.478 273.584C248.097 272.826 244.833 271.195 242.21 268.514C238.654 264.96 236.731 260.241 236.731 255.23C236.731 250.219 238.654 245.499 242.21 241.945C249.496 234.662 261.446 234.662 268.732 241.945M251.128 268.514C248.797 266.184 247.456 263.037 247.456 259.716C247.456 256.395 248.738 253.249 251.128 250.918C253.46 248.587 256.608 247.247 259.93 247.247C263.253 247.247 266.4 248.529 268.732 250.918C271.063 253.249 272.404 256.395 272.404 259.716C272.404 262.863 271.238 265.776 269.198 268.107C269.082 268.281 268.907 268.398 268.79 268.573C268.615 268.747 268.499 268.864 268.324 269.039C263.427 273.467 255.85 273.292 251.128 268.573M239.587 239.381C235.215 243.751 233 249.52 233 255.288C233 261.056 235.215 266.825 239.587 271.195C248.155 279.76 261.97 279.993 270.83 271.777C271.064 271.603 271.238 271.428 271.413 271.195C275.785 266.825 278 261.056 278 255.288C278 249.52 275.785 243.751 271.413 239.381C262.611 230.583 248.389 230.583 239.587 239.381Z" fill="#FAC9FA"/>
<path d="M255.5 158.513C259.172 158.513 262.67 159.562 265.701 161.544C264.477 161.253 263.136 161.078 261.795 161.078C252.819 161.078 245.591 168.364 245.591 177.282C245.591 181.771 247.398 185.793 250.37 188.766C253.285 191.68 257.365 193.545 261.854 193.545C263.194 193.545 264.477 193.371 265.701 193.079C262.786 194.944 259.289 196.052 255.558 196.052C250.545 196.052 245.824 194.128 242.268 190.573C238.712 187.017 236.789 182.295 236.789 177.282C236.789 166.965 245.183 158.513 255.558 158.513M274.211 176.641C274.211 176.641 274.211 177.049 274.211 177.282C274.211 184.161 268.615 189.757 261.737 189.757C258.415 189.757 255.267 188.474 252.935 186.084C250.604 183.753 249.263 180.605 249.263 177.282C249.263 173.96 250.545 170.812 252.935 168.481C255.325 166.149 258.415 164.808 261.737 164.808C265.06 164.808 268.207 166.091 270.539 168.481C272.754 170.696 274.036 173.61 274.153 176.7M255.5 154.782C243.084 154.782 233 164.867 233 177.282C233 183.52 235.507 189.115 239.587 193.196C243.667 197.276 249.263 199.782 255.5 199.782C267.624 199.782 277.534 190.165 278 178.099C278 177.807 278 177.516 278 177.282C278 177.049 278 176.7 278 176.466C277.767 170.579 275.319 165.275 271.413 161.369C267.333 157.289 261.737 154.782 255.5 154.782Z" fill="#FAC9FA"/>
<path d="M236.731 100.282C236.731 103.955 237.78 107.452 239.762 110.483C239.47 109.259 239.295 107.918 239.295 106.578C239.295 97.6011 246.582 90.3731 255.5 90.3731C259.988 90.3731 264.01 92.1801 266.983 95.1529C269.898 98.0674 271.763 102.148 271.763 106.636C271.763 107.977 271.588 109.259 271.297 110.483C273.162 107.569 274.269 104.071 274.269 100.341C274.269 95.3278 272.346 90.6063 268.79 87.0506C265.234 83.4949 260.513 81.5713 255.5 81.5713C245.183 81.5713 236.731 89.9651 236.731 100.341M254.859 118.994C254.859 118.994 255.267 118.994 255.5 118.994C262.378 118.994 267.974 113.398 267.974 106.52C267.974 103.197 266.692 100.049 264.302 97.7177C261.97 95.3861 258.823 94.0454 255.5 94.0454C252.177 94.0454 249.03 95.3278 246.698 97.7177C244.367 100.108 243.026 103.197 243.026 106.52C243.026 109.842 244.308 112.99 246.698 115.321C248.913 117.536 251.828 118.819 254.917 118.935M233 100.282C233 87.8667 243.084 77.7825 255.5 77.7825C261.737 77.7825 267.333 80.2889 271.413 84.3692C275.494 88.4496 278 94.0454 278 100.282C278 112.407 268.382 122.316 256.316 122.782C256.025 122.782 255.733 122.782 255.5 122.782C255.267 122.782 254.917 122.782 254.684 122.782C248.797 122.549 243.492 120.101 239.587 116.196C235.507 112.115 233 106.52 233 100.282Z" fill="#FAC9FA"/>
<path d="M251.536 5.09444C250.429 5.7493 249.438 6.58276 248.447 7.53529C245.299 10.7501 243.667 15.0365 243.667 19.2633C243.667 23.4902 245.241 27.717 248.447 30.9913C254.801 37.4804 265.06 37.4804 271.413 30.9913C272.346 30.0388 273.162 28.9672 273.861 27.8361C273.104 31.408 271.355 34.6824 268.79 37.3614C261.504 44.803 249.554 44.803 242.268 37.3614C238.712 33.7298 236.789 28.9077 236.789 23.7878C236.789 18.668 238.712 13.8458 242.268 10.2143C244.891 7.53529 248.155 5.80884 251.536 5.03491M268.266 9.79755C268.266 9.79755 268.557 10.0952 268.732 10.2738C268.907 10.4524 269.023 10.5715 269.14 10.7501C271.238 13.0719 272.346 16.108 272.346 19.3228C272.346 22.7162 271.063 25.931 268.674 28.3123C266.342 30.6937 263.194 32.0629 259.872 32.0629C256.549 32.0629 253.402 30.7532 251.07 28.3123C248.738 25.931 247.398 22.7162 247.398 19.3228C247.398 15.9294 248.68 12.7147 251.07 10.3333C255.791 5.51117 263.369 5.39209 268.266 9.85707M239.587 7.53529C235.215 12.0003 233 17.894 233 23.7878C233 29.6816 235.215 35.5754 239.587 40.0404C248.389 49.0298 262.611 49.0298 271.413 40.0403C275.785 35.5754 278 29.6816 278 23.7878C278 17.894 275.785 12.0003 271.413 7.53529C271.238 7.35669 271.005 7.11857 270.83 6.93996C262.029 -1.45419 248.214 -1.2756 239.587 7.53529Z" fill="#FAC9FA"/>
<path d="M178 158.513C181.754 158.513 185.329 159.562 188.427 161.544C187.176 161.253 185.806 161.078 184.435 161.078C175.259 161.078 167.87 168.364 167.87 177.282C167.87 181.771 169.718 185.793 172.756 188.766C175.736 191.68 179.907 193.545 184.495 193.545C185.865 193.545 187.176 193.371 188.427 193.079C185.448 194.944 181.873 196.052 178.06 196.052C172.935 196.052 168.109 194.128 164.474 190.573C160.839 187.017 158.873 182.295 158.873 177.282C158.873 166.965 167.453 158.513 178.06 158.513M197.187 176.641C197.187 176.641 197.187 177.049 197.187 177.282C197.187 184.161 191.466 189.757 184.435 189.757C181.039 189.757 177.821 188.474 175.438 186.084C173.054 183.753 171.684 180.605 171.684 177.282C171.684 173.96 172.995 170.812 175.438 168.481C177.881 166.149 181.039 164.808 184.435 164.808C187.832 164.808 191.049 166.091 193.433 168.481C195.697 170.696 197.008 173.61 197.127 176.7M178 154.782C165.308 154.782 155 164.867 155 177.282C155 183.52 157.562 189.115 161.733 193.196C165.904 197.276 171.624 199.782 178 199.782C190.394 199.782 200.523 190.165 201 178.099C201 177.807 201 177.516 201 177.282C201 177.049 201 176.7 201 176.466C200.762 170.579 198.259 165.275 194.267 161.369C190.096 157.289 184.376 154.782 178 154.782Z" fill="#FAC9FA"/>
<path d="M158.873 100.282C158.873 103.955 159.946 107.452 161.972 110.483C161.674 109.259 161.495 107.918 161.495 106.578C161.495 97.6011 168.943 90.3731 178.06 90.3731C182.648 90.3731 186.759 92.1801 189.798 95.1529C192.777 98.0674 194.684 102.148 194.684 106.636C194.684 107.977 194.505 109.259 194.207 110.483C196.114 107.569 197.246 104.071 197.246 100.341C197.246 95.3278 195.28 90.6063 191.645 87.0506C188.01 83.4949 183.184 81.5713 178.06 81.5713C167.513 81.5713 158.873 89.9651 158.873 100.341M177.404 118.994C177.404 118.994 177.821 118.994 178.06 118.994C185.091 118.994 190.811 113.398 190.811 106.52C190.811 103.197 189.5 100.049 187.057 97.7177C184.674 95.3861 181.456 94.0454 178.06 94.0454C174.663 94.0454 171.446 95.3278 169.062 97.7177C166.679 100.108 165.308 103.197 165.308 106.52C165.308 109.842 166.619 112.99 169.062 115.321C171.326 117.536 174.306 118.819 177.464 118.935M155 100.282C155 87.8667 165.308 77.7825 178 77.7825C184.376 77.7825 190.096 80.2889 194.267 84.3692C198.438 88.4496 201 94.0454 201 100.282C201 112.407 191.168 122.316 178.834 122.782C178.536 122.782 178.238 122.782 178 122.782C177.762 122.782 177.404 122.782 177.166 122.782C171.148 122.549 165.725 120.101 161.733 116.196C157.562 112.115 155 106.52 155 100.282Z" fill="#FAC9FA"/>
<path d="M173.948 5.09443C172.816 5.7493 171.803 6.58276 170.79 7.53529C167.573 10.7501 165.904 15.0365 165.904 19.2633C165.904 23.4902 167.513 27.717 170.79 30.9913C177.285 37.4804 187.772 37.4804 194.267 30.9913C195.22 30.0388 196.054 28.9672 196.769 27.8361C195.995 31.408 194.207 34.6824 191.586 37.3614C184.137 44.803 171.922 44.803 164.474 37.3614C160.839 33.7298 158.873 28.9077 158.873 23.7878C158.873 18.668 160.839 13.8458 164.474 10.2143C167.155 7.53529 170.492 5.80884 173.948 5.03491M191.109 9.79755C191.109 9.79755 191.407 10.0952 191.586 10.2738C191.764 10.4524 191.883 10.5715 192.003 10.7501C194.148 13.0719 195.28 16.108 195.28 19.3228C195.28 22.7162 193.969 25.931 191.526 28.3123C189.143 30.6937 185.925 32.0629 182.529 32.0629C179.132 32.0629 175.915 30.7532 173.531 28.3123C171.148 25.931 169.777 22.7162 169.777 19.3228C169.777 15.9294 171.088 12.7147 173.531 10.3333C178.358 5.51117 186.104 5.39209 191.109 9.85707M161.733 7.53529C157.264 12.0003 155 17.894 155 23.7878C155 29.6816 157.264 35.5754 161.733 40.0404C170.731 49.0298 185.269 49.0298 194.267 40.0403C198.736 35.5754 201 29.6816 201 23.7878C201 17.894 198.736 12.0003 194.267 7.53529C194.088 7.35669 193.85 7.11857 193.671 6.93996C184.674 -1.45419 170.552 -1.2756 161.733 7.53529Z" fill="#FAC9FA"/>
<path d="M43.6477 62.7825C43.6477 59.0286 44.6736 55.4534 46.6114 52.355C46.3264 53.6063 46.1554 54.9768 46.1554 56.3472C46.1554 65.5234 53.2798 72.912 62 72.912C66.3886 72.912 70.3213 71.0649 73.228 68.026C76.0777 65.0467 77.9016 60.8757 77.9016 56.2877C77.9016 54.9172 77.7306 53.6063 77.4456 52.355C79.2694 55.3343 80.3523 58.9094 80.3523 62.7229C80.3523 67.8472 78.4715 72.6737 74.9948 76.3084C71.5181 79.9431 66.9016 81.9094 62 81.9094C51.9119 81.9094 43.6477 73.3291 43.6477 62.7229M61.3731 43.5959C61.3731 43.5959 61.772 43.5959 62 43.5959C68.7254 43.5959 74.1969 49.3161 74.1969 56.3472C74.1969 59.7436 72.943 62.9612 70.6062 65.3446C68.3264 67.7281 65.2487 69.0985 62 69.0985C58.7513 69.0985 55.6736 67.7876 53.3938 65.3446C51.114 62.9016 49.8031 59.7436 49.8031 56.3472C49.8031 52.9509 51.057 49.7333 53.3938 47.3498C55.5596 45.0856 58.4093 43.7747 61.4301 43.6555M40 62.7825C40 75.4742 49.8601 85.7825 62 85.7825C68.0984 85.7825 73.57 83.2203 77.5596 79.0493C81.5492 74.8783 84 69.1581 84 62.7825C84 50.3887 74.5958 40.2592 62.7979 39.7825C62.5129 39.7825 62.228 39.7825 62 39.7825C61.772 39.7825 61.4301 39.7825 61.2021 39.7825C55.4456 40.0208 50.2591 42.5234 46.4404 46.5156C42.4508 50.6866 40 56.4068 40 62.7825Z" fill="#FAC9FA"/>
<path d="M217.5 119.571C213.828 119.571 210.33 120.621 207.299 122.602C208.523 122.311 209.864 122.136 211.205 122.136C220.181 122.136 227.409 129.422 227.409 138.341C227.409 142.829 225.602 146.851 222.63 149.824C219.715 152.738 215.635 154.604 211.146 154.604C209.806 154.604 208.523 154.429 207.299 154.137C210.214 156.003 213.711 157.11 217.442 157.11C222.455 157.11 227.176 155.187 230.732 151.631C234.288 148.075 236.211 143.354 236.211 138.341C236.211 128.023 227.817 119.571 217.442 119.571M198.731 137.7C198.731 137.7 198.731 138.108 198.731 138.341C198.731 145.219 204.326 150.815 211.205 150.815C214.527 150.815 217.675 149.532 220.006 147.143C222.338 144.811 223.679 141.663 223.679 138.341C223.679 135.018 222.396 131.871 220.006 129.539C217.617 127.207 214.527 125.867 211.205 125.867C207.882 125.867 204.734 127.149 202.403 129.539C200.188 131.754 198.905 134.668 198.789 137.758M217.5 115.782C229.916 115.782 240 125.867 240 138.282C240 144.52 237.494 150.115 233.413 154.196C229.333 158.276 223.737 160.782 217.5 160.782C205.376 160.782 195.466 151.165 195 139.099C195 138.807 195 138.516 195 138.282C195 138.049 195 137.7 195 137.466C195.233 131.579 197.681 126.275 201.587 122.369C205.667 118.289 211.263 115.782 217.5 115.782Z" fill="#FAC9FA"/>
<path d="M198.731 62.7825C198.731 59.0286 199.78 55.4534 201.762 52.355C201.47 53.6063 201.295 54.9768 201.295 56.3472C201.295 65.5234 208.582 72.912 217.5 72.912C221.988 72.912 226.01 71.0649 228.983 68.026C231.898 65.0467 233.763 60.8757 233.763 56.2877C233.763 54.9172 233.588 53.6063 233.297 52.355C235.162 55.3343 236.269 58.9094 236.269 62.7229C236.269 67.8472 234.346 72.6737 230.79 76.3084C227.234 79.9431 222.513 81.9094 217.5 81.9094C207.183 81.9094 198.731 73.3291 198.731 62.7229M216.859 43.5959C216.859 43.5959 217.267 43.5959 217.5 43.5959C224.378 43.5959 229.974 49.3161 229.974 56.3472C229.974 59.7436 228.692 62.9612 226.302 65.3446C223.97 67.7281 220.823 69.0985 217.5 69.0985C214.177 69.0985 211.03 67.7876 208.698 65.3446C206.367 62.9016 205.026 59.7436 205.026 56.3472C205.026 52.9509 206.308 49.7333 208.698 47.3498C210.913 45.0856 213.828 43.7747 216.917 43.6555M195 62.7825C195 75.4742 205.084 85.7825 217.5 85.7825C223.737 85.7825 229.333 83.2203 233.413 79.0493C237.494 74.8783 240 69.1581 240 62.7825C240 50.3887 230.382 40.2592 218.316 39.7825C218.025 39.7825 217.733 39.7825 217.5 39.7825C217.267 39.7825 216.917 39.7825 216.684 39.7825C210.797 40.0208 205.492 42.5234 201.587 46.5156C197.507 50.6866 195 56.4068 195 62.7825Z" fill="#FAC9FA"/>
<path d="M221.464 198.001C222.571 198.641 223.562 199.457 224.553 200.388C227.701 203.533 229.333 207.727 229.333 211.862C229.333 215.997 227.759 220.131 224.553 223.335C218.199 229.683 207.94 229.683 201.587 223.335C200.654 222.403 199.838 221.354 199.139 220.248C199.896 223.742 201.645 226.945 204.21 229.566C211.496 236.846 223.446 236.846 230.732 229.566C234.288 226.014 236.211 221.296 236.211 216.288C236.211 211.279 234.288 206.562 230.732 203.009C228.109 200.388 224.845 198.7 221.464 197.942M204.676 202.602C204.676 202.602 204.385 202.893 204.21 203.067C204.035 203.242 203.918 203.359 203.802 203.533C201.703 205.805 200.596 208.775 200.596 211.92C200.596 215.239 201.878 218.384 204.268 220.714C206.6 223.043 209.747 224.383 213.07 224.383C216.392 224.383 219.54 223.102 221.872 220.714C224.203 218.384 225.544 215.239 225.544 211.92C225.544 208.6 224.262 205.455 221.872 203.126C217.15 198.408 209.573 198.292 204.676 202.66M233.413 200.388C237.785 204.756 240 210.522 240 216.288C240 222.053 237.785 227.819 233.413 232.187C224.611 240.981 210.389 240.981 201.587 232.187C197.215 227.819 195 222.053 195 216.288C195 210.522 197.215 204.756 201.587 200.388C201.762 200.214 201.995 199.981 202.17 199.806C210.972 191.594 224.786 191.769 233.413 200.388Z" fill="#FAC9FA"/>
<path d="M119.873 63.7825C119.873 60.0286 120.946 56.4534 122.972 53.355C122.674 54.6063 122.495 55.9768 122.495 57.3472C122.495 66.5234 129.943 73.912 139.06 73.912C143.648 73.912 147.759 72.0648 150.798 69.026C153.777 66.0467 155.684 61.8757 155.684 57.2877C155.684 55.9172 155.505 54.6063 155.207 53.355C157.114 56.3343 158.246 59.9094 158.246 63.7229C158.246 68.8472 156.28 73.6737 152.645 77.3084C149.01 80.9431 144.184 82.9094 139.06 82.9094C128.513 82.9094 119.873 74.3291 119.873 63.7229M138.404 44.5959C138.404 44.5959 138.821 44.5959 139.06 44.5959C146.091 44.5959 151.811 50.3161 151.811 57.3472C151.811 60.7436 150.5 63.9612 148.057 66.3446C145.674 68.7281 142.456 70.0985 139.06 70.0985C135.663 70.0985 132.446 68.7876 130.062 66.3446C127.679 63.9016 126.308 60.7436 126.308 57.3472C126.308 53.9509 127.619 50.7333 130.062 48.3498C132.326 46.0856 135.306 44.7747 138.464 44.6555M116 63.7825C116 76.4742 126.308 86.7825 139 86.7825C145.376 86.7825 151.096 84.2203 155.267 80.0493C159.438 75.8783 162 70.1581 162 63.7825C162 51.3887 152.168 41.2592 139.834 40.7825C139.536 40.7825 139.238 40.7825 139 40.7825C138.762 40.7825 138.404 40.7825 138.166 40.7825C132.148 41.0208 126.725 43.5234 122.733 47.5156C118.562 51.6866 116 57.4068 116 63.7825Z" fill="#FAC9FA"/>
</svg>
