<svg width="24" height="25" viewBox="0 0 24 25" fill="none" xmlns="http://www.w3.org/2000/svg"><g clip-path="url(#a)"><path d="M12 .652c-6.627 0-12 5.373-12 12C0 18.28 3.875 23.002 9.101 24.3v-7.98H6.627v-3.667H9.1v-1.58c0-4.084 1.849-5.977 5.859-5.977.76 0 2.072.149 2.608.298v3.324c-.283-.03-.775-.045-1.386-.045-1.967 0-2.728.746-2.728 2.683v1.297h3.92l-.673 3.668h-3.247v8.244C19.396 23.848 24 18.789 24 12.652c0-6.627-5.373-12-12-12" fill="#F50"/></g><defs><clipPath id="a"><path fill="#F50" d="M0 .652h24v24H0z"/></clipPath></defs></svg>