<svg width="24" height="25" viewBox="0 0 24 25" fill="none" xmlns="http://www.w3.org/2000/svg">
  <g clip-path="url(#clip0_3491_15092)">
    <path d="M12 2.81328C15.2063 2.81328 15.5859 2.82734 16.8469 2.88359C18.0188 2.93516 18.6516 3.13203 19.0734 3.29609C19.6313 3.51172 20.0344 3.77422 20.4516 4.19141C20.8734 4.61328 21.1313 5.01172 21.3469 5.56953C21.5109 5.99141 21.7078 6.62891 21.7594 7.79609C21.8156 9.06172 21.8297 9.44141 21.8297 12.643C21.8297 15.8492 21.8156 16.2289 21.7594 17.4898C21.7078 18.6617 21.5109 19.2945 21.3469 19.7164C21.1313 20.2742 20.8687 20.6773 20.4516 21.0945C20.0297 21.5164 19.6313 21.7742 19.0734 21.9898C18.6516 22.1539 18.0141 22.3508 16.8469 22.4023C15.5813 22.4586 15.2016 22.4727 12 22.4727C8.79375 22.4727 8.41406 22.4586 7.15313 22.4023C5.98125 22.3508 5.34844 22.1539 4.92656 21.9898C4.36875 21.7742 3.96563 21.5117 3.54844 21.0945C3.12656 20.6727 2.86875 20.2742 2.65313 19.7164C2.48906 19.2945 2.29219 18.657 2.24063 17.4898C2.18438 16.2242 2.17031 15.8445 2.17031 12.643C2.17031 9.43672 2.18438 9.05703 2.24063 7.79609C2.29219 6.62422 2.48906 5.99141 2.65313 5.56953C2.86875 5.01172 3.13125 4.60859 3.54844 4.19141C3.97031 3.76953 4.36875 3.51172 4.92656 3.29609C5.34844 3.13203 5.98594 2.93516 7.15313 2.88359C8.41406 2.82734 8.79375 2.81328 12 2.81328ZM12 0.652344C8.74219 0.652344 8.33438 0.666406 7.05469 0.722656C5.77969 0.778906 4.90313 0.985156 4.14375 1.28047C3.35156 1.58984 2.68125 1.99766 2.01563 2.66797C1.34531 3.33359 0.9375 4.00391 0.628125 4.79141C0.332812 5.55547 0.126563 6.42734 0.0703125 7.70234C0.0140625 8.98672 0 9.39453 0 12.6523C0 15.9102 0.0140625 16.318 0.0703125 17.5977C0.126563 18.8727 0.332812 19.7492 0.628125 20.5086C0.9375 21.3008 1.34531 21.9711 2.01563 22.6367C2.68125 23.3023 3.35156 23.7148 4.13906 24.0195C4.90313 24.3148 5.775 24.5211 7.05 24.5773C8.32969 24.6336 8.7375 24.6477 11.9953 24.6477C15.2531 24.6477 15.6609 24.6336 16.9406 24.5773C18.2156 24.5211 19.0922 24.3148 19.8516 24.0195C20.6391 23.7148 21.3094 23.3023 21.975 22.6367C22.6406 21.9711 23.0531 21.3008 23.3578 20.5133C23.6531 19.7492 23.8594 18.8773 23.9156 17.6023C23.9719 16.3227 23.9859 15.9148 23.9859 12.657C23.9859 9.39922 23.9719 8.99141 23.9156 7.71172C23.8594 6.43672 23.6531 5.56016 23.3578 4.80078C23.0625 4.00391 22.6547 3.33359 21.9844 2.66797C21.3188 2.00234 20.6484 1.58984 19.8609 1.28516C19.0969 0.989844 18.225 0.783594 16.95 0.727344C15.6656 0.666406 15.2578 0.652344 12 0.652344Z" fill="#FF5500"/>
    <path d="M12 6.48828C8.59688 6.48828 5.83594 9.24922 5.83594 12.6523C5.83594 16.0555 8.59688 18.8164 12 18.8164C15.4031 18.8164 18.1641 16.0555 18.1641 12.6523C18.1641 9.24922 15.4031 6.48828 12 6.48828ZM12 16.6508C9.79219 16.6508 8.00156 14.8602 8.00156 12.6523C8.00156 10.4445 9.79219 8.65391 12 8.65391C14.2078 8.65391 15.9984 10.4445 15.9984 12.6523C15.9984 14.8602 14.2078 16.6508 12 16.6508Z" fill="#FF5500"/>
    <path d="M19.8469 6.24375C19.8469 7.04063 19.2 7.68282 18.4078 7.68282C17.6109 7.68282 16.9688 7.03594 16.9688 6.24375C16.9688 5.44688 17.6156 4.80469 18.4078 4.80469C19.2 4.80469 19.8469 5.45156 19.8469 6.24375Z" fill="#FF5500"/>
  </g>
  <defs>
    <clipPath id="clip0_3491_15092">
      <rect width="24" height="24" fill="#FF5500" transform="translate(0 0.652344)"/>
    </clipPath>
  </defs>
</svg>
