<svg width="64" height="64" viewBox="0 0 64 64" fill="none" xmlns="http://www.w3.org/2000/svg">
<path d="M31.9966 63.179C49.2474 63.179 63.5872 48.8703 63.5872 31.5885C63.5872 14.3377 49.2165 -0.00195312 31.9657 -0.00195312C14.6838 -0.00195312 0.40625 14.3377 0.40625 31.5885C0.40625 48.8703 14.7148 63.179 31.9966 63.179ZM31.9966 57.9139C17.3783 57.9139 5.70214 46.2068 5.70214 31.5885C5.70214 17.0011 17.3474 5.26315 31.9657 5.26315C46.5529 5.26315 58.2909 17.0011 58.3221 31.5885C58.3531 46.2068 46.584 57.9139 31.9966 57.9139ZM26.5457 42.9858L43.1152 33.1991C44.323 32.4558 44.2921 30.7523 43.1152 30.071L26.5457 20.2221C25.2759 19.4788 23.6034 20.0672 23.6034 21.461V41.747C23.6034 43.1716 25.1829 43.7911 26.5457 42.9858Z" fill="#FAF9F6"/>
</svg>
