<svg width="75" height="27" viewBox="0 0 75 27" fill="none" xmlns="http://www.w3.org/2000/svg">
<g clip-path="url(#clip0_3491_15080)">
<path d="M71.25 1.08984H3.75C1.85152 1.08984 0.3125 2.65139 0.3125 4.57765V22.3337C0.3125 24.26 1.85152 25.8216 3.75 25.8216H71.25C73.1485 25.8216 74.6875 24.26 74.6875 22.3337V4.57765C74.6875 2.65139 73.1485 1.08984 71.25 1.08984Z" fill="black"/>
<path d="M71.25 1.08984H3.75C1.85152 1.08984 0.3125 2.65139 0.3125 4.57765V22.3337C0.3125 24.26 1.85152 25.8216 3.75 25.8216H71.25C73.1485 25.8216 74.6875 24.26 74.6875 22.3337V4.57765C74.6875 2.65139 73.1485 1.08984 71.25 1.08984Z" stroke="#A6A6A6"/>
<path d="M11.1282 13.1152L5.05615 19.8018C5.05673 19.803 5.05673 19.8048 5.0573 19.806C5.24378 20.532 5.88252 21.0664 6.641 21.0664C6.94444 21.0664 7.229 20.9811 7.47313 20.832L7.4925 20.8202L14.327 16.7283L11.1282 13.1152Z" fill="#EA4335"/>
<path d="M17.2707 11.9779L17.265 11.9738L14.3143 10.1992L10.99 13.2686L14.3262 16.729L17.2611 14.9721C17.7754 14.6834 18.1251 14.1207 18.1251 13.4721C18.1251 12.8271 17.7806 12.2673 17.2707 11.9779Z" fill="#FBBC04"/>
<path d="M5.05589 7.11133C5.01939 7.25097 5 7.39771 5 7.54921V19.3649C5 19.5164 5.01939 19.6632 5.05646 19.8022L11.3366 13.2866L5.05589 7.11133Z" fill="#4285F4"/>
<path d="M11.1732 13.4574L14.3156 10.1975L7.48907 6.09086C7.241 5.93642 6.95125 5.84766 6.64157 5.84766C5.8831 5.84766 5.24322 6.38318 5.05673 7.1098L5.05615 7.11158L11.1732 13.4574Z" fill="#34A853"/>
<path d="M27.2562 8.20013C27.2562 8.83428 27.0708 9.3395 26.7 9.71574C26.2833 10.1639 25.7354 10.3879 25.0562 10.3879C24.4062 10.3879 23.8562 10.1596 23.4062 9.70306C22.9562 9.24648 22.7312 8.68418 22.7312 8.01623C22.7312 7.34829 22.9562 6.78599 23.4062 6.32941C23.8562 5.87282 24.4062 5.64453 25.0562 5.64453C25.3854 5.64453 25.6958 5.70372 25.9875 5.82209C26.2791 5.94046 26.5187 6.10746 26.7062 6.32307L26.2937 6.7416C26.1562 6.5725 25.977 6.44144 25.7562 6.34843C25.5395 6.25119 25.3062 6.20258 25.0562 6.20258C24.5687 6.20258 24.1562 6.3738 23.8187 6.71624C23.4854 7.06292 23.3187 7.49623 23.3187 8.01623C23.3187 8.53623 23.4854 8.96954 23.8187 9.31623C24.1562 9.65867 24.5687 9.82989 25.0562 9.82989C25.502 9.82989 25.8729 9.70306 26.1687 9.4494C26.4645 9.19574 26.6354 8.84696 26.6812 8.40306H25.0562V7.8577H27.225C27.2458 7.97609 27.2562 8.09024 27.2562 8.20013ZM30.5673 5.74599V6.30404H28.5298V7.74355H30.3673V8.28891H28.5298V9.72843H30.5673V10.2865H27.9548V5.74599H30.5673ZM32.8673 6.30404V10.2865H32.2923V6.30404H31.0423V5.74599H34.1173V6.30404H32.8673ZM36.6658 10.2865H36.0908V5.74599H36.6658V10.2865ZM39.0929 6.30404V10.2865H38.5179V6.30404H37.2679V5.74599H40.3429V6.30404H39.0929ZM46.5756 8.01623C46.5756 8.68843 46.3548 9.25072 45.9131 9.70306C45.4673 10.1596 44.9214 10.3879 44.2756 10.3879C43.6256 10.3879 43.0798 10.1596 42.6381 9.70306C42.1964 9.25072 41.9756 8.68843 41.9756 8.01623C41.9756 7.34404 42.1964 6.78176 42.6381 6.32941C43.0798 5.87282 43.6256 5.64453 44.2756 5.64453C44.9256 5.64453 45.4714 5.87494 45.9131 6.33575C46.3548 6.78811 46.5756 7.34829 46.5756 8.01623ZM42.5631 8.01623C42.5631 8.54048 42.7256 8.97379 43.0506 9.31623C43.3798 9.65867 43.7881 9.82989 44.2756 9.82989C44.7631 9.82989 45.1693 9.65867 45.4943 9.31623C45.8235 8.97804 45.9881 8.54467 45.9881 8.01623C45.9881 7.4878 45.8235 7.05442 45.4943 6.71624C45.1693 6.3738 44.7631 6.20258 44.2756 6.20258C43.7881 6.20258 43.3798 6.3738 43.0506 6.71624C42.7256 7.05867 42.5631 7.49198 42.5631 8.01623ZM47.8291 10.2865H47.2541V5.74599H47.9541L50.1291 9.27818H50.1541L50.1291 8.40306V5.74599H50.7041V10.2865H50.1041L47.8291 6.58307H47.8041L47.8291 7.45818V10.2865Z" fill="white"/>
<path d="M58.4488 20.6925H59.4668V13.7095H58.4488V20.6925ZM67.6181 16.2248L66.4513 19.2524H66.4163L65.205 16.2248H64.1081L65.9244 20.4562L64.8894 22.8101H65.9506L68.75 16.2248H67.6181ZM61.8449 19.8993C61.511 19.8993 61.0462 19.7289 61.0462 19.306C61.0462 18.7675 61.6251 18.5608 62.1253 18.5608C62.5725 18.5608 62.7838 18.6597 63.0556 18.7943C62.9763 19.4412 62.4325 19.8993 61.8449 19.8993ZM61.9677 16.0723C61.2306 16.0723 60.4668 16.4047 60.1515 17.1415L61.0549 17.5275C61.2481 17.1415 61.6076 17.0152 61.9851 17.0152C62.5119 17.0152 63.0469 17.3386 63.0556 17.914V17.9855C62.8713 17.8777 62.4767 17.7163 61.9939 17.7163C61.02 17.7163 60.0282 18.2642 60.0282 19.2881C60.0282 20.2227 60.8269 20.8248 61.7216 20.8248C62.4063 20.8248 62.7838 20.5103 63.0206 20.1416H63.0556V20.6807H64.0381V18.0034C64.0381 16.7638 63.1344 16.0723 61.9677 16.0723ZM55.6763 17.075H54.2284V14.6814H55.6763C56.4374 14.6814 56.8694 15.3266 56.8694 15.8779C56.8694 16.4193 56.4374 17.075 55.6763 17.075ZM55.6501 13.7095H53.2109V20.6925H54.2284V18.047H55.6501C56.7783 18.047 57.8874 17.2102 57.8874 15.8779C57.8874 14.5457 56.7783 13.7095 55.6501 13.7095ZM42.3489 19.9003C41.6458 19.9003 41.0571 19.2976 41.0571 18.4698C41.0571 17.633 41.6458 17.0208 42.3489 17.0208C43.0434 17.0208 43.5879 17.633 43.5879 18.4698C43.5879 19.2976 43.0434 19.9003 42.3489 19.9003ZM43.5181 16.6158H43.4826C43.254 16.3371 42.8149 16.0852 42.2611 16.0852C41.1007 16.0852 40.0374 17.1286 40.0374 18.4698C40.0374 19.8015 41.1007 20.8365 42.2611 20.8365C42.8149 20.8365 43.254 20.5846 43.4826 20.2964H43.5181V20.6388C43.5181 21.5476 43.0434 22.0336 42.2786 22.0336C41.6544 22.0336 41.2676 21.5744 41.1094 21.1873L40.2218 21.5655C40.4766 22.1956 41.1536 22.9692 42.2786 22.9692C43.4739 22.9692 44.4848 22.2492 44.4848 20.4947V16.2288H43.5181V16.6158ZM45.188 20.6925H46.2077V13.709H45.188V20.6925ZM47.7101 18.3888C47.6839 17.471 48.4046 17.0029 48.9229 17.0029C49.3277 17.0029 49.6703 17.2097 49.7843 17.5068L47.7101 18.3888ZM50.8743 17.5967C50.6812 17.0661 50.092 16.0852 48.888 16.0852C47.6927 16.0852 46.6998 17.0476 46.6998 18.4609C46.6998 19.7925 47.6839 20.8365 49.002 20.8365C50.0658 20.8365 50.6812 20.1707 50.936 19.7836L50.1449 19.2434C49.8814 19.6395 49.5208 19.9003 49.002 19.9003C48.4837 19.9003 48.1144 19.6573 47.8771 19.1809L50.9796 17.8665L50.8743 17.5967ZM26.1563 16.8141V17.8219H28.5115C28.4411 18.3888 28.2567 18.8027 27.9758 19.0904C27.6326 19.4417 27.0963 19.8289 26.1563 19.8289C24.7057 19.8289 23.572 18.6318 23.572 17.1471C23.572 15.6618 24.7057 14.4653 26.1563 14.4653C26.9386 14.4653 27.5098 14.7803 27.9316 15.1853L28.6261 14.4742C28.0368 13.8983 27.2551 13.457 26.1563 13.457C24.1699 13.457 22.5 15.1132 22.5 17.1471C22.5 19.1809 24.1699 20.8365 26.1563 20.8365C27.2283 20.8365 28.0368 20.4763 28.6697 19.8015C29.3206 19.1356 29.5224 18.2 29.5224 17.4437C29.5224 17.2097 29.5049 16.994 29.4695 16.8141H26.1563ZM32.2005 19.9003C31.4973 19.9003 30.8906 19.3066 30.8906 18.4609C30.8906 17.6057 31.4973 17.0208 32.2005 17.0208C32.9032 17.0208 33.5099 17.6057 33.5099 18.4609C33.5099 19.3066 32.9032 19.9003 32.2005 19.9003ZM32.2005 16.0852C30.9168 16.0852 29.871 17.084 29.871 18.4609C29.871 19.8289 30.9168 20.8365 32.2005 20.8365C33.4837 20.8365 34.5295 19.8289 34.5295 18.4609C34.5295 17.084 33.4837 16.0852 32.2005 16.0852ZM37.2813 19.9003C36.5781 19.9003 35.9714 19.3066 35.9714 18.4609C35.9714 17.6057 36.5781 17.0208 37.2813 17.0208C37.9845 17.0208 38.5906 17.6057 38.5906 18.4609C38.5906 19.3066 37.9845 19.9003 37.2813 19.9003ZM37.2813 16.0852C35.9981 16.0852 34.9523 17.084 34.9523 18.4609C34.9523 19.8289 35.9981 20.8365 37.2813 20.8365C38.5644 20.8365 39.6103 19.8289 39.6103 18.4609C39.6103 17.084 38.5644 16.0852 37.2813 16.0852Z" fill="white"/>
</g>
<defs>
<clipPath id="clip0_3491_15080">
<rect width="75" height="26" fill="white" transform="translate(0 0.652344)"/>
</clipPath>
</defs>
</svg>
