<svg width="17" height="17" viewBox="0 0 17 17" fill="none" xmlns="http://www.w3.org/2000/svg">
<path fill-rule="evenodd" clip-rule="evenodd" d="M6.78813 12.3207C3.64313 12.3207 1.09364 9.8157 1.09364 6.7207C1.09364 3.6257 3.64313 1.11572 6.78813 1.11572C9.93313 1.11572 12.4831 3.6257 12.4831 6.7207C12.4831 9.8157 9.93313 12.3207 6.78813 12.3207ZM15.9021 15.2207L11.7726 11.1557C12.8536 9.9807 13.5181 8.4307 13.5181 6.7207C13.5181 3.0607 10.5051 0.0957031 6.78813 0.0957031C3.07113 0.0957031 0.058136 3.0607 0.058136 6.7207C0.058136 10.3757 3.07113 13.3407 6.78813 13.3407C8.39413 13.3407 9.86714 12.7857 11.0241 11.8607L15.1701 15.9407C15.3726 16.1407 15.7001 16.1407 15.9021 15.9407C16.1046 15.7457 16.1046 15.4207 15.9021 15.2207Z" fill="#101010"/>
</svg>
