<svg width="14" height="14" viewBox="0 0 14 14" fill="none" xmlns="http://www.w3.org/2000/svg">
<path d="M6.99998 6.79557C6.08331 6.79557 5.29859 6.46918 4.64581 5.81641C3.99304 5.16363 3.66665 4.37891 3.66665 3.46224C3.66665 2.54557 3.99304 1.76085 4.64581 1.10807C5.29859 0.455295 6.08331 0.128906 6.99998 0.128906C7.91665 0.128906 8.70137 0.455295 9.35415 1.10807C10.0069 1.76085 10.3333 2.54557 10.3333 3.46224C10.3333 4.37891 10.0069 5.16363 9.35415 5.81641C8.70137 6.46918 7.91665 6.79557 6.99998 6.79557ZM0.333313 11.7956V11.1289C0.333313 10.6567 0.454841 10.2227 0.697896 9.82682C0.940952 9.43099 1.26387 9.12891 1.66665 8.92057C2.52776 8.49002 3.40276 8.1671 4.29165 7.95182C5.18054 7.73654 6.08331 7.62891 6.99998 7.62891C7.91665 7.62891 8.81942 7.73654 9.70831 7.95182C10.5972 8.1671 11.4722 8.49002 12.3333 8.92057C12.7361 9.12891 13.059 9.43099 13.3021 9.82682C13.5451 10.2227 13.6666 10.6567 13.6666 11.1289V11.7956C13.6666 12.2539 13.5035 12.6463 13.1771 12.9727C12.8507 13.299 12.4583 13.4622 12 13.4622H1.99998C1.54165 13.4622 1.14929 13.299 0.822896 12.9727C0.496507 12.6463 0.333313 12.2539 0.333313 11.7956ZM1.99998 11.7956H12V11.1289C12 10.9761 11.9618 10.8372 11.8854 10.7122C11.809 10.5872 11.7083 10.49 11.5833 10.4206C10.8333 10.0456 10.0764 9.76432 9.31248 9.57682C8.54859 9.38932 7.77776 9.29557 6.99998 9.29557C6.2222 9.29557 5.45137 9.38932 4.68748 9.57682C3.92359 9.76432 3.16665 10.0456 2.41665 10.4206C2.29165 10.49 2.19095 10.5872 2.11456 10.7122C2.03817 10.8372 1.99998 10.9761 1.99998 11.1289V11.7956ZM6.99998 5.12891C7.45831 5.12891 7.85067 4.96571 8.17706 4.63932C8.50345 4.31293 8.66665 3.92057 8.66665 3.46224C8.66665 3.00391 8.50345 2.61155 8.17706 2.28516C7.85067 1.95877 7.45831 1.79557 6.99998 1.79557C6.54165 1.79557 6.14929 1.95877 5.8229 2.28516C5.49651 2.61155 5.33331 3.00391 5.33331 3.46224C5.33331 3.92057 5.49651 4.31293 5.8229 4.63932C6.14929 4.96571 6.54165 5.12891 6.99998 5.12891Z" fill="#18332F"/>
</svg>
