<svg width="20" height="19" viewBox="0 0 20 19" fill="none" xmlns="http://www.w3.org/2000/svg">
<path d="M1.11125 18.125C0.935552 18.125 0.77583 18.0811 0.63208 17.9932C0.48833 17.9054 0.376524 17.7896 0.296663 17.6458C0.216802 17.5021 0.172879 17.3464 0.164892 17.1786C0.156906 17.0109 0.20083 16.8472 0.296663 16.6875L9.16125 1.35417C9.25708 1.19444 9.38086 1.07465 9.5326 0.994792C9.68434 0.914931 9.84006 0.875 9.99979 0.875C10.1595 0.875 10.3152 0.914931 10.467 0.994792C10.6187 1.07465 10.7425 1.19444 10.8383 1.35417L19.7029 16.6875C19.7987 16.8472 19.8427 17.0109 19.8347 17.1786C19.8267 17.3464 19.7828 17.5021 19.7029 17.6458C19.6231 17.7896 19.5112 17.9054 19.3675 17.9932C19.2237 18.0811 19.064 18.125 18.8883 18.125H1.11125ZM2.76437 16.2083H17.2352L9.99979 3.75L2.76437 16.2083ZM9.99979 15.25C10.2713 15.25 10.4989 15.1582 10.6826 14.9745C10.8663 14.7908 10.9581 14.5632 10.9581 14.2917C10.9581 14.0201 10.8663 13.7925 10.6826 13.6089C10.4989 13.4252 10.2713 13.3333 9.99979 13.3333C9.72826 13.3333 9.50066 13.4252 9.31697 13.6089C9.13329 13.7925 9.04145 14.0201 9.04145 14.2917C9.04145 14.5632 9.13329 14.7908 9.31697 14.9745C9.50066 15.1582 9.72826 15.25 9.99979 15.25ZM9.99979 12.375C10.2713 12.375 10.4989 12.2832 10.6826 12.0995C10.8663 11.9158 10.9581 11.6882 10.9581 11.4167V8.54167C10.9581 8.27014 10.8663 8.04253 10.6826 7.85885C10.4989 7.67517 10.2713 7.58333 9.99979 7.58333C9.72826 7.58333 9.50066 7.67517 9.31697 7.85885C9.13329 8.04253 9.04145 8.27014 9.04145 8.54167V11.4167C9.04145 11.6882 9.13329 11.9158 9.31697 12.0995C9.50066 12.2832 9.72826 12.375 9.99979 12.375Z" fill="#FAF9F6"/>
</svg>
