<svg width="18" height="16" viewBox="0 0 18 16" fill="none" xmlns="http://www.w3.org/2000/svg">
<path d="M10.5275 0.759064C10.3934 0.893127 10.3934 1.1125 10.5275 1.24656L16.7634 7.4825C16.8406 7.55969 16.8975 7.64906 16.9381 7.7425H0.407813C0.216875 7.7425 0.0625 7.89688 0.0625 8.08781C0.0625 8.27875 0.216875 8.43313 0.407813 8.43313H16.9422C16.9016 8.52656 16.8447 8.61594 16.7675 8.69313L10.5316 14.9291C10.3975 15.0631 10.3975 15.2825 10.5316 15.4166C10.6656 15.5506 10.885 15.5506 11.0191 15.4166L17.255 9.18062C17.5556 8.88 17.71 8.48188 17.71 8.08375C17.71 7.68563 17.5597 7.29156 17.255 6.98687L11.0191 0.750937C10.885 0.616875 10.6656 0.616875 10.5316 0.750937" fill="#FF5500"/>
</svg>
