<svg width="31" height="37" viewBox="0 0 31 37" fill="none" xmlns="http://www.w3.org/2000/svg">
<path d="M30.3127 21.6138C30.0385 21.3405 29.5897 21.3405 29.3155 21.6138L16.5602 34.3255C16.4023 34.4828 16.2195 34.5988 16.0284 34.6816L16.0284 0.985156C16.0284 0.595937 15.7126 0.281249 15.3221 0.281249C14.9315 0.281249 14.6157 0.595937 14.6157 0.985156L14.6157 34.6898C14.4246 34.607 14.2418 34.4911 14.0839 34.3338L1.3286 21.622C1.05438 21.3487 0.605659 21.3487 0.331441 21.622C0.0572214 21.8953 0.0572214 22.3425 0.331441 22.6158L13.0868 35.3275C13.7017 35.9403 14.516 36.255 15.3304 36.255C16.1447 36.255 16.9508 35.9486 17.574 35.3275L30.3293 22.6158C30.6035 22.3425 30.6035 21.8953 30.3293 21.622" fill="#FF5500"/>
</svg>
