<svg width="18" height="15" viewBox="0 0 18 15" fill="none" xmlns="http://www.w3.org/2000/svg">
<path d="M7.4725 14.8288C7.60656 14.6948 7.60656 14.4754 7.4725 14.3413L1.23656 8.10539C1.15937 8.0282 1.1025 7.93883 1.06188 7.84539L17.5922 7.84539C17.7831 7.84539 17.9375 7.69101 17.9375 7.50008C17.9375 7.30914 17.7831 7.15476 17.5922 7.15476L1.05781 7.15476C1.09844 7.06133 1.15531 6.97195 1.2325 6.89476L7.46844 0.658826C7.6025 0.524763 7.6025 0.305389 7.46844 0.171328C7.33438 0.0372649 7.115 0.0372648 6.98094 0.171328L0.745002 6.40726C0.444377 6.70789 0.29 7.10601 0.29 7.50414C0.29 7.90226 0.440314 8.29633 0.745001 8.60101L6.98094 14.837C7.115 14.971 7.33437 14.971 7.46844 14.837" fill="#FF5500"/>
</svg>
