<svg width="28" height="29" viewBox="0 0 28 29" fill="none" xmlns="http://www.w3.org/2000/svg">
<path d="M14 28.5879C10.287 28.5879 6.72602 27.1129 4.10051 24.4874C1.475 21.8619 8.99315e-07 18.3009 1.22392e-06 14.5879C1.54852e-06 10.8749 1.475 7.3139 4.10051 4.68839C6.72602 2.06289 10.287 0.587889 14 0.587889C17.713 0.58789 21.274 2.06289 23.8995 4.6884C26.525 7.31391 28 10.8749 28 14.5879C28 18.3009 26.525 21.8619 23.8995 24.4874C21.274 27.1129 17.713 28.5879 14 28.5879ZM14 2.58789C10.8174 2.58789 7.76516 3.85217 5.51472 6.10261C3.26428 8.35304 2 11.4053 2 14.5879C2 17.7705 3.26428 20.8227 5.51472 23.0732C7.76516 25.3236 10.8174 26.5879 14 26.5879C17.1826 26.5879 20.2348 25.3236 22.4853 23.0732C24.7357 20.8227 26 17.7705 26 14.5879C26 11.4053 24.7357 8.35305 22.4853 6.10261C20.2348 3.85217 17.1826 2.58789 14 2.58789ZM12.5 8.08789C12.5 7.69006 12.658 7.30854 12.9393 7.02723C13.2206 6.74592 13.6022 6.58789 14 6.58789C14.3978 6.58789 14.7794 6.74592 15.0607 7.02723C15.342 7.30854 15.5 7.69006 15.5 8.08789C15.5 8.48571 15.342 8.86724 15.0607 9.14855C14.7794 9.42985 14.3978 9.58789 14 9.58789C13.6022 9.58789 13.2206 9.42985 12.9393 9.14855C12.658 8.86724 12.5 8.48571 12.5 8.08789ZM14 22.5879C13.7348 22.5879 13.4804 22.4825 13.2929 22.295C13.1054 22.1075 13 21.8531 13 21.5879L13 12.5879C13 12.3227 13.1054 12.0683 13.2929 11.8808C13.4804 11.6932 13.7348 11.5879 14 11.5879C14.2652 11.5879 14.5196 11.6932 14.7071 11.8808C14.8946 12.0683 15 12.3227 15 12.5879L15 21.5879C15 21.8531 14.8946 22.1075 14.7071 22.295C14.5196 22.4825 14.2652 22.5879 14 22.5879Z" fill="#FF5500"/>
</svg>
