<svg width="20" height="23" viewBox="0 0 20 23" fill="none" xmlns="http://www.w3.org/2000/svg">
<path d="M2 22.5879C1.45 22.5879 0.979167 22.3921 0.5875 22.0004C0.195833 21.6087 0 21.1379 0 20.5879C0 20.0379 0.195833 19.5671 0.5875 19.1754C0.979167 18.7837 1.45 18.5879 2 18.5879H18C18.55 18.5879 19.0208 18.7837 19.4125 19.1754C19.8042 19.5671 20 20.0379 20 20.5879C20 21.1379 19.8042 21.6087 19.4125 22.0004C19.0208 22.3921 18.55 22.5879 18 22.5879H2ZM4 14.5879H5.4L13.2 6.81289L11.775 5.38789L4 13.1879V14.5879ZM2 15.5879V12.7629C2 12.6296 2.025 12.5004 2.075 12.3754C2.125 12.2504 2.2 12.1379 2.3 12.0379L13.2 1.16289C13.3833 0.979557 13.5958 0.837891 13.8375 0.737891C14.0792 0.637891 14.3333 0.587891 14.6 0.587891C14.8667 0.587891 15.125 0.637891 15.375 0.737891C15.625 0.837891 15.85 0.987891 16.05 1.18789L17.425 2.58789C17.625 2.77122 17.7708 2.98789 17.8625 3.23789C17.9542 3.48789 18 3.74622 18 4.01289C18 4.26289 17.9542 4.50872 17.8625 4.75039C17.7708 4.99206 17.625 5.21289 17.425 5.41289L6.55 16.2879C6.45 16.3879 6.3375 16.4629 6.2125 16.5129C6.0875 16.5629 5.95833 16.5879 5.825 16.5879H3C2.71667 16.5879 2.47917 16.4921 2.2875 16.3004C2.09583 16.1087 2 15.8712 2 15.5879Z" fill="#FFEDE5"/>
</svg>
